<?xml version="1.0" encoding="utf-8"?>
<!-- Generator: Adobe Illustrator 27.5.0, SVG Export Plug-In . SVG Version: 6.00 Build 0)  -->
<svg version="1.1" xmlns="http://www.w3.org/2000/svg" xmlns:xlink="http://www.w3.org/1999/xlink" x="0px" y="0px"
	 viewBox="0 0 500 500" style="enable-background:new 0 0 500 500;" xml:space="preserve">
<g id="BACKGROUND">
	<rect style="fill:#C8D9F1;" width="500" height="500"/>
	<path style="fill:#DCEDFB;" d="M281.215,197.483c-18.788,29.464-21.527,68.031-9.032,100.665
		c5.251,13.714,13.105,26.562,23.787,36.639c24.907,23.496,64.33,29.069,95.778,15.525c31.448-13.544,54.047-44.578,59.724-78.345
		c5.677-33.766-4.84-69.406-25.985-96.337c-25.031-31.881-58.408-37.458-94.551-19.537
		C312.424,165.273,292.425,179.903,281.215,197.483z"/>
	<path style="fill:#DCEDFB;" d="M122.007,146.473c-11.055,9.335-16.885,24.244-15.964,38.683c0.387,6.068,1.911,12.114,4.893,17.413
		c6.953,12.355,21.852,19.411,35.952,17.929c14.099-1.482,26.854-10.969,33.255-23.618c6.401-12.649,6.631-28.033,1.588-41.283
		c-5.97-15.685-18.478-21.999-34.973-19.364C138.311,137.582,128.603,140.903,122.007,146.473z"/>
	<path style="fill:#DCEDFB;" d="M70.641,323.878c-2.818,28.486,9.018,57.609,31.049,79.292c8.142,8.013,17.878,15.197,29.561,18.941
		c17.602,5.641,37.515,2.832,55.137-2.763c14.591-4.633,28.672-11.336,38.621-21.48c7.865-8.019,12.795-17.823,16.325-27.804
		c9.465-26.765,9.142-56.72-5.718-81.671c-15.224-25.563-42.306-38.032-73.602-45.705c-30.375-7.447-59.497,16.742-74.205,37.079
		C78.175,293.087,72.181,308.311,70.641,323.878z"/>
</g>
<g id="OBJECTS">
	<ellipse style="fill:#AEBFDA;" cx="170.955" cy="450.374" rx="109.713" ry="16.397"/>
	<ellipse style="fill:#AEBFDA;" cx="356.981" cy="461.852" rx="75.999" ry="10.286"/>
	<g>
		<path style="fill:#A29DBC;" d="M154.541,351.526h65.013c3.208,0,5.809-2.601,5.809-5.809V299.73c0-3.208-2.601-5.809-5.809-5.809
			h-65.013c-3.208,0-5.809,2.601-5.809,5.809v45.987C148.733,348.925,151.333,351.526,154.541,351.526z"/>
		<path style="fill:#464A8A;" d="M158.044,347.642h58.008c3.208,0,5.809-2.601,5.809-5.809v-38.22c0-3.208-2.601-5.809-5.809-5.809
			h-58.008c-3.208,0-5.809,2.601-5.809,5.809v38.22C152.235,345.042,154.835,347.642,158.044,347.642z"/>
		<path style="fill:#FFFFFF;" d="M160.745,340.934h52.605c1.551,0,2.809-1.258,2.809-2.809v-30.804c0-1.551-1.258-2.809-2.809-2.809
			h-52.605c-1.551,0-2.809,1.258-2.809,2.809v30.804C157.936,339.677,159.194,340.934,160.745,340.934z"/>
		<path style="fill:#242643;" d="M209.464,328.393c-0.052-0.876-0.325-1.867-1.398-1.896c-0.815-0.022-1.456,0.692-2.03,1.17
			c-0.78,0.65-1.56,1.3-2.341,1.95c-0.284,0.236-3.069,2.774-3.132,1.279c-0.029-0.693,0.398-1.499,0.685-2.111
			c0.343-0.73,0.742-1.433,1.164-2.12c0.887-1.444,1.885-2.817,2.751-4.274c0.827-1.39,1.829-3.062,1.656-4.742
			c-0.168-1.632-1.536-2.984-3.239-2.656c-0.809,0.156-1.551,0.683-2.24,1.107c-0.686,0.423-1.361,0.865-2.027,1.32
			c-5.317,3.634-10.148,8.274-16.201,10.702c-0.532,0.213-1.173,0.496-1.764,0.404c-0.597-0.092-0.311-0.69-0.177-1.117
			c0.473-1.509,1.226-2.911,2.059-4.25c1.641-2.634,3.637-5.044,5.083-7.799c0.821-1.566,1.796-3.579,0.305-5.08
			c-1.417-1.426-3.474-1.071-5.145-0.375c-3.519,1.466-6.784,3.65-9.317,6.51c-0.624,0.704,0.185,1.943,1.057,1.37
			c0.232-0.152,0.473-0.289,0.712-0.429c0.131-0.076,0.194-0.222,0.191-0.364c2.096-1.919,4.397-3.575,6.973-4.804
			c1.077-0.514,2.851-1.513,3.992-0.677c0.533,0.391,0.414,0.942,0.205,1.494c-0.269,0.711-0.647,1.392-1.021,2.052
			c-1.469,2.592-3.372,4.903-4.914,7.45c-0.738,1.219-1.386,2.496-1.869,3.839c-0.491,1.367-0.785,3.149,0.824,3.879
			c1.294,0.588,2.711,0.035,3.925-0.48c1.381-0.585,2.712-1.274,4-2.043c2.623-1.566,5.056-3.423,7.489-5.264
			c2.412-1.824,4.836-3.668,7.462-5.177c0.483-0.278,1.046-0.621,1.461-0.084c0.465,0.601,0.208,1.457-0.042,2.089
			c-0.569,1.434-1.471,2.753-2.318,4.034c-0.93,1.407-1.891,2.803-2.629,4.324c-0.683,1.408-1.73,3.58-0.406,4.943
			c1.318,1.355,3.192,0.569,4.428-0.422c0.774-0.62,1.527-1.268,2.289-1.903c0.36-0.3,0.72-0.6,1.08-0.9
			c0.167-0.139,0.333-0.277,0.5-0.416c0.012,0.222,0.024,0.445,0.036,0.667c0.035,0.652,0.134,1.259,0.268,1.897
			c0.203,0.972,1.531,0.643,1.616-0.219C209.565,330.3,209.521,329.366,209.464,328.393z"/>
		<path style="fill:#DB9486;" d="M219.55,344.16c0,0,6.21,0.793,8.588,1.982c2.378,1.189,3.567,1.057,5.153,3.039
			c1.586,1.982,1.321,3.699,1.321,3.699l-16.911-0.132L219.55,344.16z"/>
		<path style="fill:#242643;" d="M89.939,359.882c0,0-11.362,82.444-11.098,85.35c0.264,2.907,3.964,3.435,5.813,1.321
			c1.85-2.114,19.554-89.314,19.554-89.314L89.939,359.882z"/>
		<path style="fill:#242643;" d="M258.187,359.882c0,0,11.362,82.444,11.098,85.35c-0.264,2.907-3.964,3.435-5.813,1.321
			c-1.85-2.114-19.554-89.314-19.554-89.314L258.187,359.882z"/>
		<path style="fill:#242643;" d="M87.09,362.525h173.227c1.346,0,2.436-1.091,2.436-2.436v-6.49c0-1.345-1.091-2.436-2.436-2.436
			H87.09c-1.346,0-2.436,1.091-2.436,2.436v6.49C84.654,361.434,85.744,362.525,87.09,362.525z"/>
		<path style="fill:#FFFFFF;" d="M141.202,208.868c0,0-2.231-3.255-5.549-5.285c-3.318-2.03-16.119-11.759-9.248-29.331
			c6.87-17.572,27.349-17.969,37.258-7.135c9.909,10.834,4.492,21.932,1.057,26.556c-3.435,4.624-9.645,8.456-10.173,13.344
			C154.017,211.906,141.202,208.868,141.202,208.868z"/>
		<path style="fill:#242643;" d="M145.165,219.834c0,0,0.396,3.567,3.832,3.303c3.435-0.264,3.567-4.228,3.567-4.228
			L145.165,219.834z"/>
		<path style="fill:#A29DBC;" d="M141.202,210.321c0,0,1.321,8.588,2.378,10.041c1.057,1.453,8.72,0.396,10.173-0.132
			c1.453-0.528,0.264-12.551,0.264-12.551L141.202,210.321z"/>
		<path style="fill:#9E4E4C;" d="M200.876,444.281c-1.145,1.48-0.749,5.708,0.705,6.765c4.373,3.179,18.243-2.989,17.043-8.985
			c-0.661-3.303-9.645-1.057-11.098-0.793C206.073,441.533,200.876,444.281,200.876,444.281z"/>
		<path style="fill:#DB9486;" d="M198.542,433.023c0,0,1.648,10.023,2.334,11.258c0.687,1.236,5.027,1.302,6.674,0.204
			c1.648-1.098,1.152-14.757,1.152-14.757L198.542,433.023z"/>
		<path style="fill:#9E4E4C;" d="M169.035,441.771c-1.145,1.48-0.749,5.708,0.705,6.765c4.373,3.179,18.243-2.989,17.043-8.985
			c-0.661-3.303-9.645-1.057-11.098-0.793C174.232,439.023,169.035,441.771,169.035,441.771z"/>
		<path style="fill:#DB9486;" d="M166.701,430.513c0,0,1.648,10.023,2.334,11.258c0.686,1.236,5.629,0.686,7.277-0.412
			c1.647-1.098,0.549-14.141,0.549-14.141L166.701,430.513z"/>
		<path style="fill:#9E4E4C;" d="M158.774,394.234c0,0,7.254,37.918,7.135,39.504c-0.119,1.587,10.306,0.264,11.362-0.661
			c1.057-0.925-3.567-44.261-3.039-44.393C174.76,388.553,158.774,394.234,158.774,394.234z"/>
		<path style="fill:#9E4E4C;" d="M176.214,363.318c0,0,23.782,6.474,27.613,11.362c3.832,4.888,7.003,57.869,7.003,58.794
			c0,0.925-11.363,2.775-12.948,2.51c-1.585-0.264-5.945-40.297-7.663-44.393c-1.717-4.096-14.269-7.531-14.269-7.531l-27.878-1.586
			c0,0,3.171-13.741,3.699-14.533c0.529-0.793,16.251-6.606,16.251-6.606L176.214,363.318z"/>
		<path style="fill:#E6B05C;" d="M138.295,279.817c-7.135,1.585-15.194,2.907-18.893,6.474c-3.699,3.567-12.155,21.668-15.194,34.88
			c-3.039,13.212,5.153,28.076,10.173,30.718c5.021,2.642,38.315,18.695,38.315,18.695s14.665-1.321,23.518-7.267
			c0,0-7.003-27.085-6.474-35.276c0,0,7.267,17.704,10.041,20.082c2.775,2.378,38.051,4.096,39.504,3.699
			c1.453-0.396,1.453-7.531,1.321-8.852c-0.132-1.321-26.556-5.285-29.199-6.738c-2.642-1.453-15.722-41.75-18.761-45.714
			c-3.039-3.964-17.121-9.116-17.121-9.116s-9.7-2.642-10.228-2.642C144.769,278.76,138.295,279.817,138.295,279.817z"/>
		<path style="fill:#242643;" d="M121.912,388.949c0,0-8.192,66.193-8.72,69.496c-0.529,3.303,2.774,4.228,4.228,1.982
			c1.453-2.246,14.533-69.099,14.533-69.099L121.912,388.949z"/>
		<path style="fill:#242643;" d="M143.642,387.904c0,0-7.386,59.686-7.863,62.665c-0.477,2.978,2.502,3.812,3.812,1.787
			c1.31-2.025,13.105-62.307,13.105-62.307L143.642,387.904z"/>
		<path style="fill:#242643;" d="M164.266,388.949c0,0,8.192,66.193,8.72,69.496c0.528,3.303-2.775,4.228-4.228,1.982
			c-1.453-2.246-14.533-69.099-14.533-69.099L164.266,388.949z"/>
		<path style="fill:#242643;" d="M184.075,389.304c0,0,7.214,58.292,7.679,61.201c0.465,2.909-2.443,3.723-3.723,1.745
			c-1.28-1.978-12.799-60.852-12.799-60.852L184.075,389.304z"/>
		<path style="fill:#DB9486;" d="M164.744,247.315c0,0,2.169,5.285,2.305,8.456c0.136,3.171,1.792,5.333,1.928,6.918
			c0.135,1.585-1.898,2.246-1.898,2.246s-1.587,5.804-3.354,6.932c-3.503,2.236-7.657,0.948-8.47,1.873
			c-0.813,0.925,0.271,7.663,0.271,7.663s-10.757,4.756-17.231-1.585c0,0,2.725-9.116,2.725-12.155
			c0-3.039-0.271-10.966-0.271-11.891c0-0.925,1.762-6.87,2.847-7.927c1.085-1.057,7.456-2.907,9.761-3.171
			C155.661,244.408,164.744,247.315,164.744,247.315z"/>
		<path style="fill:#242643;" d="M157.255,252.889c0,0-5.153-2.51-6.606,1.057c-1.453,3.567,1.85,6.21,1.85,6.21
			s-2.114,9.777-4.096,10.57s-3.964-0.132-3.964-0.132s-1.453,1.585-3.039,1.189c-1.585-0.396-2.51-1.85-2.51-1.85
			s-1.057,1.982-2.246,0.396c-1.189-1.585-5.417-17.308-3.171-26.689c2.246-9.381,7.267-11.627,9.381-9.116
			c0,0,4.624-5.813,10.041-5.946c5.417-0.132,11.362-4.228,14.665-2.907c3.303,1.321,1.85,6.21,1.85,6.21s1.057,2.378,1.585,5.945
			c0.529,3.567-2.114,9.249-4.756,11.495C163.596,251.567,157.255,252.889,157.255,252.889z"/>
		<path style="fill:#464A8A;" d="M115.438,310.733c-10.571,10.285,0.132,39.636,0.925,55.887
			c0.793,16.251,0.925,16.515,3.699,22.461c2.774,5.945,20.611,10.834,38.183,10.041c17.572-0.793,28.142-5.417,30.256-7.927
			c2.114-2.51,0.132-9.249-5.285-10.438c-5.417-1.189-21.404,0-23.914-0.396c-2.51-0.396,0.661-22.196,3.832-37.919
			c3.171-15.722,3.964-30.124-4.756-35.408C149.657,301.749,130.104,296.464,115.438,310.733z"/>
		<path style="fill:#828097;" d="M141.466,207.15c-1.423,0.395-2.51,3.832-0.264,4.492c2.246,0.661,10.57-0.793,12.816-1.189
			c2.246-0.396,2.378-4.228,0.529-4.888C152.696,204.904,146.222,205.829,141.466,207.15z"/>
		<path style="fill:#D06867;" d="M154.362,273.245c-0.201-0.351-0.705-0.32-1.043-0.386c-0.347-0.067-0.692-0.141-1.029-0.248
			c-0.325-0.104-0.639-0.23-0.959-0.347c-0.162-0.06-0.327-0.156-0.493-0.195c-0.166-0.039-0.322-0.126-0.489-0.156
			c-0.18-0.032-0.304,0.132-0.228,0.297c0.073,0.159,0.215,0.283,0.317,0.424c0.113,0.157,0.299,0.263,0.449,0.382
			c0.319,0.253,0.72,0.434,1.101,0.57c0.379,0.135,0.763,0.232,1.162,0.281c0.391,0.048,0.965,0.139,1.211-0.25
			C154.432,273.505,154.426,273.356,154.362,273.245z"/>
		<g>
			<path style="fill:#D06867;" d="M153.158,255.438c0.006-0.01,0.012-0.026,0.015-0.04c-0.001,0.002-0.002,0.005-0.004,0.007
				C153.166,255.416,153.163,255.426,153.158,255.438z"/>
			<path style="fill:#D06867;" d="M153.915,253.99c-0.052-0.039-0.089-0.041-0.153-0.04c-0.008,0-0.007,0.001-0.01,0.001
				c-0.005-0.001-0.007-0.002-0.022-0.003c-0.029-0.004-0.056,0.003-0.083,0.005c-0.029-0.003-0.057-0.007-0.087-0.008
				c0.068,0.002-0.07-0.007-0.072-0.007c-0.098-0.003-0.181,0.028-0.27,0.064c-0.166,0.067-0.31,0.136-0.452,0.245
				c-0.275,0.21-0.517,0.47-0.663,0.789c-0.136,0.299-0.211,0.638-0.179,0.968c0.019,0.2,0.062,0.388,0.161,0.566
				c0.045,0.081,0.107,0.177,0.171,0.24c0.081,0.081,0.167,0.116,0.26,0.14c0.024,0.013,0.049,0.027,0.074,0.038
				c0.143,0.064,0.293,0.074,0.423-0.03c0.039-0.031,0.061-0.077,0.086-0.12c-0.002,0.038,0.013,0.016,0.042-0.058
				c0-0.001,0.001-0.001,0.001-0.002c0.003-0.008,0.004-0.009,0.008-0.018c0.018-0.067,0.018-0.135,0-0.202
				c-0.006-0.027-0.013-0.053-0.02-0.079c0.003-0.054,0.023-0.106,0.011-0.163c-0.006-0.028-0.015-0.058-0.023-0.085
				c-0.006-0.02-0.014-0.101-0.006-0.014c0.011,0.122-0.013-0.095-0.01-0.072c-0.004-0.031-0.009-0.063-0.015-0.095
				c0-0.005,0-0.002,0-0.009c-0.002-0.025-0.005-0.049-0.007-0.074c-0.004-0.049-0.005-0.099-0.004-0.149
				c0.001-0.023,0.003-0.047,0.004-0.07c0.021-0.098,0.043-0.195,0.074-0.291c0.002-0.005,0.004-0.013,0.007-0.02
				c-0.008,0.014-0.013,0.016,0.007-0.025c0.001-0.003,0.003-0.005,0.004-0.008c0.002-0.006,0.006-0.013,0.006-0.018
				c0,0.003-0.002,0.007-0.003,0.01c0.023-0.047,0.046-0.093,0.073-0.138c0.061-0.104,0.129-0.206,0.199-0.304
				c0.012-0.016,0.073-0.092,0.013-0.019c0.019-0.022,0.037-0.045,0.055-0.068c0.051-0.065,0.096-0.132,0.143-0.199
				c0.057-0.082,0.106-0.159,0.141-0.249c0.044-0.096,0.083-0.2,0.119-0.27C153.939,254.109,153.962,254.026,153.915,253.99z"/>
		</g>
		<g>
			<path style="fill:#D06867;" d="M154.456,256.776c-0.024-0.049-0.052-0.097-0.084-0.142c-0.035-0.05-0.073-0.095-0.126-0.126
				c-0.069-0.027-0.086-0.035-0.054-0.023c0.02,0.007,0.015,0.005-0.016-0.007c-0.036-0.013-0.069-0.017-0.107-0.014
				c-0.001-0.002-0.002-0.003-0.003-0.005c-0.059-0.077-0.166-0.016-0.132,0.073c-0.018,0.02-0.037,0.039-0.05,0.065
				c-0.011,0.019-0.015,0.026-0.016,0.026c-0.002,0.006-0.002,0.005-0.006,0.015c-0.02,0.048-0.026,0.096-0.03,0.147
				c-0.001,0,0-0.003-0.001,0.001c-0.004,0.015-0.006,0.031-0.009,0.046c-0.006,0.028-0.015,0.056-0.021,0.084
				c-0.006,0.027-0.009,0.051-0.013,0.079c-0.008,0.061-0.009,0.067-0.003,0.02c0.005-0.037,0.005-0.041,0.001-0.011
				c-0.006,0.03-0.012,0.059-0.019,0.089c-0.016,0.063-0.038,0.125-0.063,0.185c0.015-0.035,0.029-0.069,0.044-0.104
				c-0.046,0.105-0.079,0.212-0.123,0.318c0.015-0.035,0.03-0.071,0.045-0.106c-0.069,0.157-0.13,0.331-0.084,0.498
				c0.002,0.015,0.003,0.03,0.006,0.044c0.001-0.008,0.001-0.016,0.002-0.023c0,0,0,0.001,0,0.001
				c-0.003,0.015-0.002,0.031,0.003,0.046c0.005,0.04,0.018,0.08,0.039,0.115c0.052,0.087,0.152,0.1,0.246,0.093
				c0.101,0.013,0.199,0.012,0.292-0.045c0.046-0.029,0.089-0.065,0.128-0.103c0.064-0.064,0.114-0.134,0.15-0.216
				c0.044-0.101,0.085-0.193,0.1-0.301c0.01-0.077,0.017-0.153,0.014-0.231C154.56,257.09,154.532,256.93,154.456,256.776z"/>
			<path style="fill:#D06867;" d="M153.869,256.621C153.883,256.588,153.866,256.622,153.869,256.621L153.869,256.621z"/>
		</g>
		<path style="fill:#5764A2;" d="M159.005,321.016c-0.058-1.958-0.34-3.935-1.031-5.776c-0.63-1.68-1.558-3.292-2.877-4.527
			c-1.396-1.308-3.163-2.17-4.994-2.684c-3.654-1.024-7.658-1.292-11.439-1.225c-3.843,0.067-7.704,0.612-11.407,1.645
			c-2.069,0.577-4.102,1.31-6.048,2.222c-1.908,0.895-3.864,1.98-5.476,3.348c-0.014,0.012,0.004,0.03,0.018,0.024
			c1.724-0.731,3.394-1.581,5.136-2.277c1.697-0.678,3.413-1.313,5.164-1.838c3.498-1.049,7.1-1.715,10.748-1.915
			c3.671-0.201,7.358,0.033,10.948,0.847c1.754,0.398,3.511,0.948,5.024,1.946c1.443,0.951,2.53,2.333,3.281,3.876
			c0.885,1.822,1.264,3.857,1.357,5.868c0.105,2.289-0.311,4.616,0.066,6.885c0.071,0.426,0.641,0.322,0.764,0
			C159.006,325.432,159.068,323.138,159.005,321.016z"/>
		<path style="fill:#5764A2;" d="M157.654,331.89c-0.599,1.578-0.9,3.222-1.283,4.859c-0.382,1.632-0.668,3.29-0.958,4.941
			c-0.565,3.219-1.037,6.456-1.461,9.697c-0.433,3.313-0.835,6.645-1.024,9.982c-0.186,3.271-0.004,6.519,0.357,9.772
			c0.204,1.84,0.43,3.678,0.67,5.514c0.248,1.898,0.454,3.84,1.119,5.64c0.147,0.399,0.671,0.314,0.718-0.097
			c0.193-1.682,0.012-3.382-0.171-5.061c-0.175-1.603-0.367-3.204-0.555-4.805c-0.389-3.291-0.666-6.577-0.549-9.894
			c0.229-6.527,1.206-13.035,2.023-19.508c0.232-1.838,0.503-3.672,0.715-5.512c0.211-1.832,0.511-3.666,0.512-5.514
			C157.767,331.837,157.676,331.832,157.654,331.89z"/>
		<path style="fill:#464A8A;" d="M118.232,455.164c-0.127-0.059-0.268-0.093-0.395-0.144c-0.175-0.07-0.356-0.092-0.54-0.133
			c-0.088-0.019-0.176-0.034-0.264-0.05c-0.056-0.01-0.11-0.02-0.167-0.028c-0.034-0.005-0.05-0.007-0.063-0.009
			c0.009,0.001,0.018,0.002-0.009-0.001c-0.18-0.028-0.36-0.061-0.538-0.099c-0.333-0.072-0.662-0.169-0.987-0.272
			c-0.158-0.05-0.317-0.091-0.475-0.142c-0.073-0.023-0.148-0.036-0.224-0.044c-0.069-0.007-0.168,0.023-0.231,0.002
			c-0.06-0.02-0.104,0.051-0.077,0.101c0.033,0.063,0.022,0.163,0.05,0.234c0.033,0.084,0.078,0.156,0.134,0.227
			c0.109,0.138,0.238,0.282,0.376,0.391c0.344,0.272,0.715,0.465,1.13,0.607c0.744,0.253,1.718,0.296,2.327-0.282
			C118.377,455.429,118.365,455.226,118.232,455.164z"/>
		<path style="fill:#464A8A;" d="M139.745,447.657c-0.154-0.171-0.344-0.179-0.558-0.199c-0.077-0.007-0.155-0.012-0.232-0.019
			c-0.031-0.003-0.062-0.006-0.093-0.009c-0.014-0.001-0.014-0.001-0.021-0.001c-0.002,0,0,0-0.002,0
			c-0.068-0.011-0.137-0.024-0.205-0.034c-0.047-0.006-0.094-0.013-0.142-0.019c0.057,0.008,0.066,0.009,0.026,0.003
			c-0.03-0.006-0.061-0.01-0.092-0.015c-0.145-0.026-0.288-0.058-0.43-0.098c-0.264-0.075-0.53-0.16-0.787-0.258
			c-0.019-0.007-0.02-0.008-0.029-0.011c-0.002-0.001-0.001-0.001-0.013-0.006c-0.055-0.023-0.11-0.053-0.167-0.068
			c-0.024-0.006-0.026-0.007-0.027-0.008c-0.003-0.003-0.002-0.002-0.006-0.004c-0.054-0.04-0.115-0.076-0.18-0.094
			c-0.007-0.002-0.034-0.006-0.058-0.01c0.029,0,0.051-0.003-0.031-0.005c0,0-0.003,0-0.003,0c0,0,0.001,0,0.002,0
			c-0.003,0-0.002,0-0.005,0c-0.158-0.003-0.272,0.136-0.307,0.279c-0.05,0.208,0.066,0.405,0.201,0.553
			c0.117,0.128,0.298,0.233,0.445,0.325c0.169,0.106,0.347,0.189,0.535,0.258c0.34,0.125,0.701,0.215,1.063,0.238
			c0.169,0.01,0.341,0.016,0.509-0.001c0.102-0.01,0.212-0.021,0.312-0.045c0.161-0.039,0.267-0.134,0.354-0.27
			C139.905,447.984,139.859,447.785,139.745,447.657z"/>
		<path style="fill:#464A8A;" d="M172.322,454.49c-0.054,0.002-0.106,0.014-0.159,0.022c-0.148-0.032-0.307,0.002-0.466,0.033
			c-0.321,0.006-0.624,0.105-0.942,0.192c-0.338,0.092-0.683,0.175-1.032,0.22c-0.025,0.002-0.128,0.013-0.141,0.014
			c-0.102,0.009-0.204,0.015-0.307,0.019c-0.179,0.007-0.357,0.02-0.536,0.021c-0.177,0.001-0.354,0.009-0.531,0.018
			c-0.19,0.01-0.356,0.069-0.537,0.098c-0.24,0.039-0.332,0.408-0.148,0.56c0.092,0.076,0.156,0.164,0.26,0.234
			c0.1,0.068,0.21,0.11,0.321,0.155c0.205,0.083,0.402,0.14,0.62,0.175c0.478,0.077,0.949,0.079,1.429,0.018
			c0.507-0.064,0.982-0.191,1.444-0.411c0.092-0.044,0.181-0.09,0.266-0.147c0.146-0.099,0.234-0.205,0.347-0.334
			c0.11-0.125,0.218-0.234,0.257-0.375c0.028-0.038,0.06-0.073,0.082-0.116C172.635,454.717,172.532,454.482,172.322,454.49z"/>
		<path style="fill:#464A8A;" d="M190.875,446.086c-0.162-0.001-0.308,0.081-0.456,0.105c-0.202,0.032-0.377,0.151-0.558,0.201
			c-0.197,0.055-0.393,0.179-0.581,0.261c-0.085,0.038-0.171,0.075-0.256,0.113c-0.07,0.031-0.082,0.035-0.201,0.079
			c-0.321,0.117-0.699,0.222-1,0.27c-0.14,0.022-0.373,0.033-0.547,0.095c-0.214,0.076-0.431,0.22-0.385,0.477
			c0.089,0.495,0.741,0.582,1.145,0.594c0.443,0.014,0.905-0.109,1.31-0.282c0.379-0.162,0.723-0.375,1.037-0.643
			c0.085-0.073,0.138-0.157,0.218-0.217c0.081-0.061,0.176-0.148,0.227-0.235c0.001-0.001,0.037-0.089,0.041-0.108
			c0.027-0.042,0.066-0.082,0.097-0.12c0.069-0.087,0.12-0.161,0.155-0.267C191.173,446.248,191.034,446.087,190.875,446.086z"/>
		<path style="fill:#81423F;" d="M214.773,441.962c-0.176-0.116-0.519-0.224-0.701-0.275c-0.288-0.081-0.571-0.181-0.865-0.255
			c-0.239-0.06-0.476-0.122-0.712-0.191c-0.023-0.007-0.045-0.015-0.068-0.022c0.049-0.101,0.101-0.201,0.146-0.303
			c0.042-0.097,0.082-0.194,0.118-0.293c0.012-0.033,0.022-0.066,0.034-0.098c0.011-0.028,0.014-0.036,0.017-0.044
			c-0.006,0.016-0.013,0.035,0.006-0.005c0.037-0.08,0.063-0.163,0.097-0.244c0.017-0.04,0.004-0.021,0-0.012
			c0.007-0.016,0.068-0.126,0.053-0.099c0.068-0.12,0.033-0.293-0.094-0.36c-0.624-0.328-1.135,0.538-1.434,0.989
			c-0.024,0.036-0.047,0.073-0.071,0.109c-0.083-0.028-0.169-0.051-0.252-0.08c-0.524-0.183-1.032-0.431-1.598-0.345
			c-0.359,0.055-0.463,0.512-0.319,0.784c0.256,0.484,0.85,0.741,1.324,0.965c0.006,0.003,0.013,0.005,0.019,0.008
			c-0.056,0.1-0.119,0.195-0.173,0.297c-0.169,0.318-0.316,0.74-0.24,1.104c0.029,0.141,0.11,0.26,0.256,0.299
			c0.168,0.045,0.358-0.06,0.5-0.144c0.14-0.083,0.285-0.258,0.394-0.379c0.136-0.151,0.239-0.347,0.347-0.519
			c0.035-0.056,0.063-0.117,0.097-0.174c0.089,0.033,0.172,0.077,0.262,0.108c0.494,0.169,0.999,0.332,1.515,0.421
			c0.214,0.037,0.198,0.017,0.395,0.043c0.219,0.03,0.388,0.055,0.608,0.016c0.267-0.048,0.595-0.145,0.731-0.467
			C215.315,442.443,215.045,442.143,214.773,441.962z"/>
		<g>
			<path style="fill:#81423F;" d="M179.606,440.862c-0.002,0-0.004-0.001-0.007-0.002
				C179.581,440.858,179.59,440.86,179.606,440.862z"/>
			<path style="fill:#81423F;" d="M179.623,440.865c-0.017-0.003-0.009-0.001-0.017-0.003c0.013,0.001,0.024,0.01,0.037,0.01
				C179.681,440.873,179.675,440.871,179.623,440.865z"/>
			<path style="fill:#81423F;" d="M183.194,439.018c-0.331-0.38-0.946-0.479-1.416-0.581c-0.175-0.038-0.35-0.072-0.525-0.107
				c0.033-0.162,0.055-0.322,0.022-0.49c-0.01-0.051-0.012-0.059-0.007-0.023c0-0.075-0.019-0.145-0.057-0.21
				c-0.049-0.084-0.142-0.167-0.241-0.19c-0.165-0.038-0.297,0.015-0.416,0.12c-0.219,0.135-0.378,0.332-0.516,0.553
				c-0.382-0.078-0.766-0.158-1.151-0.208c-0.233-0.031-0.443-0.012-0.673,0.027c-0.129,0.022-0.407,0.126-0.384,0.313
				c0.052,0.428,0.51,0.69,0.876,0.851c0.223,0.098,0.456,0.172,0.685,0.259c-0.109,0.232-0.21,0.475-0.21,0.718
				c0.004,0.032,0.006,0.048,0.009,0.072c-0.007,0.047-0.018,0.094-0.011,0.141c0.005,0.115,0.037,0.261,0.097,0.363
				c0.039,0.066,0.123,0.159,0.194,0.201c0.04,0.023,0.085,0.029,0.13,0.035c0.021,0.003,0.051,0.007,0.115,0.016
				c0.092,0,0.177-0.023,0.257-0.069c0.089-0.041,0.177-0.097,0.247-0.166c0.072-0.087,0.1-0.124,0.091-0.12
				c0.045-0.043,0.099-0.076,0.131-0.131c0.044-0.063,0.086-0.129,0.123-0.196c0.071-0.13,0.12-0.275,0.182-0.414
				c0.235,0.068,0.468,0.145,0.707,0.198c0.524,0.117,1.119,0.25,1.62-0.005C183.441,439.783,183.436,439.296,183.194,439.018z"/>
		</g>
		<path style="fill:#81423F;" d="M184.836,443.6c-0.523,0.248-0.924,0.733-1.349,1.117c-0.424,0.384-0.867,0.742-1.336,1.07
			c-0.984,0.687-2.051,1.265-3.174,1.689c-1.098,0.415-2.211,0.725-3.365,0.941c-0.569,0.107-1.145,0.178-1.722,0.221
			c-0.48,0.036-1.107-0.054-1.488,0.277c-0.101,0.088-0.075,0.237,0,0.329c0.32,0.391,1.02,0.363,1.488,0.396
			c0.66,0.046,1.32,0.037,1.98-0.019c1.275-0.107,2.559-0.414,3.746-0.89c1.171-0.469,2.29-1.057,3.318-1.79
			c0.953-0.679,2.303-1.58,2.685-2.738C185.777,443.724,185.226,443.416,184.836,443.6z"/>
		<path style="fill:#81423F;" d="M218.081,444.141c-0.585,0.513-1.046,1.123-1.587,1.688c-0.516,0.538-1.087,1.033-1.677,1.487
			c-1.282,0.986-2.714,1.811-4.21,2.426c-1.44,0.592-2.98,1.03-4.529,1.203c-0.74,0.083-1.475,0.089-2.215-0.003
			c-0.385-0.047-0.765-0.126-1.141-0.223c-0.283-0.073-0.515-0.176-0.806-0.126c-0.087,0.015-0.124,0.116-0.109,0.192
			c0.13,0.647,1.075,1.038,1.629,1.223c0.801,0.268,1.71,0.288,2.545,0.228c1.731-0.125,3.468-0.621,5.068-1.277
			c1.635-0.67,3.157-1.543,4.553-2.627c1.248-0.969,2.858-2.342,2.824-4.049C218.422,444.102,218.211,444.027,218.081,444.141z"/>
		<path style="fill:#81423F;" d="M176.788,432.717c-1.066,0.405-2.176,0.706-3.298,0.909c-0.613,0.111-1.231,0.17-1.849,0.249
			c-0.262,0.033-1.355,0.106-1.251,0.559c0.091,0.397,0.871,0.405,1.188,0.425c0.578,0.037,1.172-0.046,1.744-0.123
			c1.139-0.153,2.252-0.412,3.337-0.792c0.422-0.147,1.267-0.344,1.287-0.907C177.968,432.405,177.142,432.583,176.788,432.717z"/>
		<path style="fill:#81423F;" d="M210.653,432.695c-0.546-0.006-1.018,0.305-1.502,0.529c-0.521,0.241-1.05,0.461-1.59,0.656
			c-1.068,0.385-2.16,0.707-3.272,0.936c-1.113,0.228-2.245,0.374-3.38,0.428c-0.987,0.047-2.276-0.13-3.184,0.297
			c-0.31,0.146-0.22,0.544,0,0.711c0.833,0.629,2.405,0.545,3.396,0.514c1.206-0.037,2.406-0.181,3.587-0.427
			c1.147-0.24,2.275-0.569,3.361-1.011c0.554-0.225,1.101-0.466,1.636-0.733c0.53-0.264,1.127-0.517,1.438-1.042
			C211.367,433.176,211.081,432.7,210.653,432.695z"/>
		<path style="fill:#81423F;" d="M202.921,379.676c-0.44-0.461-0.858-0.93-1.334-1.358c-0.467-0.421-0.897-0.876-1.299-1.36
			c-0.807-0.97-1.319-2.112-1.953-3.191c-0.078-0.134-0.291-0.076-0.291,0.079c-0.002,1.346,0.672,2.664,1.432,3.738
			c0.395,0.558,0.856,1.087,1.376,1.533c0.55,0.473,1.152,0.756,1.846,0.94C202.922,380.117,203.078,379.841,202.921,379.676z"/>
		<path style="fill:#C38035;" d="M154.704,280.684c-0.757,0.109-1.527,0.706-2.235,1.004c-0.735,0.309-1.494,0.562-2.267,0.758
			c-1.535,0.391-3.136,0.534-4.713,0.355c-1.404-0.16-2.787-0.606-4.031-1.274c-0.629-0.338-1.209-0.738-1.754-1.198
			c-0.26-0.219-1.072-0.931-1.382-0.379c-0.347,0.616,0.428,1.251,0.836,1.6c0.575,0.493,1.199,0.93,1.862,1.296
			c1.375,0.758,2.914,1.188,4.469,1.365c1.664,0.189,3.362,0.027,4.984-0.378c0.839-0.209,1.657-0.491,2.454-0.824
			c0.751-0.314,1.849-0.66,2.366-1.313C155.684,281.205,155.318,280.596,154.704,280.684z"/>
		<path style="fill:#C38035;" d="M221.386,344.161c-0.015-0.425-0.048-1.966-0.852-1.604c-0.335,0.151-0.366,0.508-0.418,0.831
			c-0.064,0.4-0.084,0.803-0.118,1.206c-0.069,0.808-0.121,1.618-0.214,2.424c-0.091,0.793-0.201,1.585-0.334,2.372
			c-0.132,0.779-0.424,1.634-0.267,2.422c0.119,0.599,0.88,0.557,1.177,0.154c0.488-0.663,0.532-1.711,0.656-2.502
			c0.141-0.898,0.246-1.798,0.31-2.704C221.386,345.893,221.417,345.029,221.386,344.161z"/>
		<path style="fill:#C38035;" d="M169.123,322.801c-0.455-1.489-0.916-2.975-1.363-4.467c-0.435-1.453-0.867-2.907-1.306-4.358
			c-0.43-1.422-0.807-2.862-1.391-4.231c-0.031-0.073-0.156-0.036-0.149,0.04c0.124,1.446,0.47,2.861,0.795,4.272
			c0.35,1.518,0.715,3.03,1.106,4.538c0.381,1.468,0.768,2.934,1.182,4.392c0.399,1.403,0.729,3.024,1.547,4.253
			c0.171,0.257,0.607,0.173,0.603-0.164C170.13,325.636,169.54,324.164,169.123,322.801z"/>
		<path style="fill:#C38035;" d="M122.752,301.265c0.001-0.005,0.001-0.009,0.002-0.014c-0.2,0.093-0.316,0.287-0.439,0.461
			c-0.109,0.154-0.216,0.306-0.313,0.467c-0.213,0.355-0.43,0.709-0.632,1.07c-0.2,0.357-0.412,0.71-0.576,1.086
			c-0.151,0.346-0.306,0.791-0.238,1.17c0.027,0.15,0.2,0.176,0.313,0.127c0.19-0.082,0.337-0.25,0.472-0.403
			c0.122-0.137,0.249-0.281,0.354-0.443c0.224-0.348,0.401-0.727,0.592-1.094c0.186-0.356,0.355-0.722,0.53-1.084
			c0.17-0.351,0.408-0.792,0.351-1.19C123.138,301.208,122.907,301.179,122.752,301.265z"/>
		<path style="fill:#FFFFFF;" d="M206.966,302.067c-0.267-0.156-0.618-0.162-0.885,0c-0.001,0.001-0.003,0.002-0.004,0.003
			c-0.131,0.078-0.236,0.182-0.313,0.313c-0.079,0.136-0.119,0.283-0.119,0.441c0,0.307,0.167,0.6,0.432,0.754l0.004,0.003
			c0.271,0.158,0.613,0.159,0.885,0c0.266-0.156,0.434-0.448,0.434-0.757C207.4,302.515,207.232,302.223,206.966,302.067z"/>
		<path style="fill:#FFFFFF;" d="M210.543,302.067c-0.267-0.156-0.618-0.162-0.885,0c-0.001,0.001-0.003,0.002-0.004,0.003
			c-0.131,0.078-0.236,0.182-0.313,0.313c-0.079,0.136-0.119,0.283-0.119,0.441c0,0.307,0.167,0.6,0.432,0.754l0.004,0.003
			c0.271,0.158,0.613,0.159,0.885,0c0.266-0.156,0.434-0.448,0.434-0.757C210.977,302.515,210.81,302.223,210.543,302.067z"/>
		<path style="fill:#FFFFFF;" d="M214.121,302.067c-0.267-0.156-0.618-0.162-0.885,0c-0.001,0.001-0.003,0.002-0.004,0.003
			c-0.131,0.078-0.236,0.182-0.313,0.313c-0.079,0.136-0.119,0.283-0.119,0.441c0,0.307,0.167,0.6,0.432,0.754l0.004,0.003
			c0.271,0.158,0.613,0.159,0.885,0c0.267-0.156,0.434-0.448,0.434-0.757C214.555,302.515,214.387,302.223,214.121,302.067z"/>
		<path style="fill:#2A2D50;" d="M166.253,233.331c-0.124-0.267-0.576-0.199-0.634,0.083c-0.174,0.848-0.435,1.643-0.536,2.51
			c-0.099,0.855-0.208,1.694-0.432,2.528c-0.436,1.624-1.179,3.176-2.217,4.503c-0.984,1.258-2.198,2.319-3.567,3.139
			c-0.703,0.421-1.43,0.822-2.16,1.192c-0.674,0.342-1.331,0.682-1.835,1.263c-0.021,0.024-0.022,0.067,0.011,0.084
			c1.531,0.791,3.588-0.105,4.947-0.892c1.588-0.92,3.008-2.158,4.131-3.607c1.187-1.53,2.06-3.294,2.559-5.166
			c0.245-0.918,0.432-1.891,0.465-2.842C167.02,235.08,166.683,234.257,166.253,233.331z"/>
		<path style="fill:#2A2D50;" d="M162.643,232.218c-0.076-0.259-0.466-0.27-0.536,0c-0.438,1.679-0.539,3.439-1.015,5.111
			c-0.189,0.665-0.462,1.307-0.832,1.892c-0.188,0.297-0.395,0.582-0.601,0.866c-0.207,0.285-0.455,0.539-0.547,0.886l0.025-0.019
			c-0.071,0.267,0.069,0.5,0.367,0.533c0.759,0.085,1.556-0.687,1.984-1.235c0.538-0.687,0.929-1.445,1.209-2.271
			C163.339,236.087,163.199,234.109,162.643,232.218z"/>
		<path style="fill:#2A2D50;" d="M140.04,235.785c-0.593-0.434-1.571,0.118-2.073,0.463c-0.695,0.478-1.265,1.108-1.742,1.801
			c-1.071,1.553-1.76,3.428-2.176,5.257c-0.434,1.91-0.604,3.874-0.632,5.829c-0.014,0.977-0.003,1.955,0.061,2.93
			c0.031,0.475,0.067,0.965,0.154,1.433c0.048,0.262,0.112,0.536,0.177,0.794c0.058,0.229,0.172,0.351,0.25,0.561
			c0.106,0.286,0.558,0.343,0.639,0c0.052-0.222,0.153-0.374,0.184-0.604c0.033-0.247,0.048-0.503,0.07-0.751
			c0.036-0.406,0.038-0.816,0.036-1.224c-0.006-0.907-0.053-1.813-0.058-2.721c-0.01-1.792,0.07-3.602,0.391-5.369
			c0.317-1.744,0.84-3.469,1.696-5.027c0.396-0.721,0.848-1.403,1.433-1.986c0.459-0.459,1.285-0.734,1.616-1.287
			C140.087,235.847,140.071,235.807,140.04,235.785z"/>
		<path style="fill:#2A2D50;" d="M137.662,251.617c-0.02-0.574-0.013-1.146,0.021-1.719c0.018-0.294,0.021-0.589,0.047-0.882
			c0.011-0.126,0.027-0.248,0.03-0.374c-0.016-0.083-0.016-0.166-0.001-0.248c0.001-0.012-0.008-0.013-0.009-0.023
			c0.015-0.015,0.036-0.025,0.038-0.05c0.011-0.13-0.074-0.219-0.209-0.209c-0.234,0.017-0.344,0.32-0.416,0.494
			c-0.286,0.689-0.421,1.443-0.499,2.182c-0.078,0.745-0.075,1.486,0.008,2.231c0.089,0.801,0.32,1.499,0.67,2.219
			c0.128,0.265,0.583,0.142,0.561-0.152C137.816,253.933,137.703,252.774,137.662,251.617z"/>
		<path style="fill:#6A687A;" d="M153.293,210.756c-0.282-0.256-0.575-0.237-0.936-0.178c-0.498,0.081-0.996,0.167-1.496,0.24
			c-1.064,0.155-2.134,0.275-3.206,0.364c-1.007,0.084-2.016,0.137-3.025,0.184c-0.832,0.039-2.025-0.119-2.742,0.388
			c-0.033,0.024-0.055,0.083-0.015,0.114c0.69,0.534,1.824,0.4,2.648,0.398c1.047-0.002,2.09-0.056,3.133-0.139
			c1.013-0.081,2.024-0.191,3.031-0.328c0.501-0.068,1-0.142,1.499-0.223c0.441-0.072,0.922-0.087,1.146-0.527
			C153.377,210.955,153.374,210.83,153.293,210.756z"/>
		<path style="fill:#828097;" d="M152.882,214.91c-0.692-0.339-1.481-0.355-2.24-0.395c-0.827-0.044-1.653-0.092-2.477-0.174
			c-0.831-0.082-1.659-0.202-2.482-0.338c-0.696-0.116-1.548-0.339-2.229-0.075c-0.043,0.017-0.082,0.072-0.048,0.117
			c0.44,0.594,1.306,0.826,1.989,1.003c0.828,0.215,1.666,0.368,2.513,0.483c0.849,0.116,1.699,0.195,2.557,0.205
			c0.813,0.01,1.709-0.009,2.417-0.445C153.014,215.21,153.036,214.986,152.882,214.91z"/>
		<path style="fill:#828097;" d="M151.683,219.422c-0.31-0.201-0.734-0.309-1.087-0.417c-0.347-0.106-0.703-0.185-1.056-0.267
			c-0.736-0.17-1.472-0.337-2.205-0.52c-0.732-0.183-1.454-0.405-2.178-0.618c-0.634-0.187-1.384-0.519-2.041-0.289
			c-0.036,0.012-0.046,0.045-0.032,0.078c0.275,0.649,1.048,0.945,1.652,1.21c0.738,0.324,1.497,0.587,2.268,0.822
			c0.747,0.228,1.511,0.411,2.283,0.53c0.383,0.059,0.778,0.116,1.166,0.116c0.365,0,0.815,0.007,1.161-0.115
			C151.851,219.868,151.899,219.562,151.683,219.422z"/>
		<path style="fill:#C8D9F1;" d="M157.391,190.148c-0.758-1.16-1.941-1.987-3.349-2.059c-1.667-0.086-3.201,0.736-4.378,1.948
			c-0.705-1.941-1.995-3.611-4.198-4.037c-2.65-0.513-4.515,1.6-5.561,3.835c-0.711-0.539-1.529-0.918-2.378-0.862
			c-1.464,0.097-2.263,1.472-2.609,2.749c-0.405,1.499-0.47,3.086-0.268,4.621c0.408,3.102,1.93,6.001,4.064,8.267
			c0.523,0.555,1.122,1.021,1.744,1.46c0.408,0.288,0.855-0.336,0.522-0.676c-3.261-3.327-5.956-7.806-5.133-12.654
			c0.159-0.937,0.456-2.4,1.533-2.693c0.724-0.197,1.485,0.204,2.125,0.748c-0.04,0.108-0.08,0.217-0.116,0.324
			c-0.465,1.395-0.582,3.07,0.336,4.315c0.393,0.533,0.972,0.976,1.667,0.89c0.599-0.074,1.013-0.53,1.186-1.089
			c0.413-1.339-0.394-2.836-1.174-3.876c-0.208-0.277-0.451-0.563-0.72-0.839c0.161-0.405,0.34-0.803,0.54-1.183
			c0.556-1.053,1.304-2.115,2.484-2.51c2.554-0.855,4.72,1.612,5.371,3.803c0.006,0.019,0.009,0.039,0.014,0.059
			c-0.775,0.987-1.334,2.14-1.577,3.258c-0.155,0.714-0.19,1.519,0.274,2.13c0.402,0.529,1.109,0.826,1.75,0.572
			c1.337-0.532,0.889-2.642,0.774-3.718c-0.067-0.625-0.181-1.27-0.344-1.903c0.983-1.207,2.34-2.097,3.882-2.087
			c1.37,0.009,2.447,0.916,3.006,2.118c0.644,1.387,0.485,2.906,0.104,4.34c-0.83,3.12-2.693,5.728-4.024,8.622
			c-0.153,0.333,0.237,0.685,0.526,0.406c1.329-1.282,2.211-2.903,2.995-4.559c0.762-1.609,1.513-3.346,1.752-5.122
			C158.423,193.156,158.289,191.52,157.391,190.148z M140.639,192.029c0.475,0.663,1.436,2.18,0.845,3.031
			c-0.34,0.49-0.841-0.254-1.009-0.561c-0.298-0.545-0.364-1.162-0.328-1.773c0.021-0.371,0.091-0.737,0.179-1.099
			C140.442,191.766,140.549,191.902,140.639,192.029z M149.549,194.568c-0.004,0.405-0.01,1.305-0.632,1.182
			c-0.798-0.158-0.523-1.424-0.389-1.934c0.17-0.642,0.455-1.301,0.828-1.919C149.503,192.78,149.558,193.686,149.549,194.568z"/>
		<g>
			<path style="fill:#FFFFFF;" d="M158.573,173.417c0.064,0.083,0.128,0.167,0.192,0.25c0.001-0.002-0.007-0.011-0.008-0.014
				c-0.06-0.078-0.123-0.152-0.181-0.232C158.575,173.42,158.574,173.418,158.573,173.417z"/>
			<path style="fill:#DCEDFB;" d="M164.351,172.951c-0.069-0.438-0.057-0.431,0.037,0.023c0.196-0.051-0.422-1.547-0.405-1.511
				c-0.132-0.266-0.274-0.546-0.433-0.797c-0.437-0.69-1.046-1.376-1.628-1.956c-1.081-1.077-2.289-2.041-3.528-2.929
				c-1.172-0.84-2.556-1.406-3.889-1.939c-0.659-0.263-1.431-0.456-2.142-0.394c-0.641,0.056-1.83,0.129-1.781,1.054
				c0.032,0.606,0.495,1.243,0.878,1.698c0.382,0.454,0.825,0.823,1.278,1.202c0.943,0.791,1.798,1.675,2.692,2.518
				c0.886,0.834,1.711,1.733,2.469,2.685c0.19,0.239,0.387,0.471,0.58,0.707c0.008,0.01,0.048,0.054,0.094,0.105
				c-0.009-0.012-0.018-0.023-0.027-0.035c0.01,0.014,0.021,0.026,0.031,0.039c0.08,0.089,0.172,0.197,0.181,0.232
				c0.096,0.125,0.189,0.252,0.29,0.372c0.201,0.22,0.42,0.434,0.633,0.643c0.223,0.217,0.469,0.433,0.748,0.577
				c0.119,0.05,0.238,0.1,0.357,0.151c0.025,0.014,0.051,0.027,0.099,0.051c0.752,0.394,1.616,0.438,2.365,0
				c0.654-0.383,1.245-1.227,1.16-2.023C164.395,173.266,164.375,173.108,164.351,172.951z"/>
		</g>
		<path style="fill:#DCEDFB;" d="M166.601,179.233c-0.052-0.145-0.108-0.289-0.167-0.432c-0.073-0.177-0.147-0.353-0.224-0.529
			c-0.047-0.106-0.074-0.134-0.161-0.247c-0.123-0.159-0.277-0.316-0.459-0.41c-0.452-0.232-1.055-0.308-1.501,0
			c-0.101,0.069-0.245,0.168-0.331,0.254c-0.188,0.188-0.306,0.43-0.395,0.677c-0.027,0.076-0.049,0.153-0.075,0.229
			c-0.05,0.145-0.104,0.289-0.16,0.432c-0.11,0.275-0.12,0.578-0.094,0.87c0.014,0.155,0.028,0.306,0.049,0.461
			c0.037,0.273,0.023,0.249,0.129,0.5c0.049,0.116,0.11,0.235,0.184,0.345c0.23,0.472,0.635,0.812,1.181,0.886
			c0.283,0.038,0.539,0.005,0.802-0.106c0.26-0.11,0.454-0.282,0.623-0.496c0.024-0.02,0.051-0.041,0.072-0.061
			c0.219-0.201,0.378-0.52,0.463-0.805c0.021-0.07,0.035-0.143,0.05-0.215c0.017-0.081,0.033-0.162,0.048-0.243
			c0.03-0.174,0.066-0.37,0.06-0.546C166.687,179.621,166.661,179.401,166.601,179.233z"/>
		<g>
			<path style="fill:#242643;" d="M164.877,253.763c0.001,0.003,0.006,0.012,0.007,0.014
				C164.88,253.732,164.879,253.741,164.877,253.763z"/>
			<path style="fill:#242643;" d="M165.171,252.333c-0.049-0.032-0.109-0.054-0.166-0.066c-0.111-0.022-0.223-0.028-0.336-0.026
				c-0.187,0.004-0.381,0.022-0.558,0.083c-0.177,0.061-0.352,0.138-0.514,0.232c-0.174,0.102-0.33,0.228-0.465,0.377
				c-0.076,0.084-0.142,0.177-0.2,0.274c-0.07,0.118-0.097,0.23-0.114,0.365c-0.016,0.129,0.112,0.293,0.24,0.315
				c0.008,0.001,0.015,0.002,0.022,0.005c0.02,0.007,0.041,0.002,0.062,0l-0.011,0.005c0.008,0.001,0.016-0.005,0.024-0.005
				c0.017-0.002,0.033-0.003,0.049-0.009c0.077-0.015,0.156-0.05,0.219-0.088c0.013-0.01,0.026-0.02,0.039-0.03
				c0.05-0.039,0.052-0.04,0.005-0.004c0.001,0.001,0.032-0.023,0.034-0.025c0.035-0.024,0.071-0.046,0.106-0.07
				c0.129-0.086,0.259-0.167,0.394-0.244c0.063-0.036,0.13-0.063,0.193-0.097c0.008-0.003,0.015-0.006,0.023-0.009
				c0.041-0.015,0.083-0.029,0.124-0.042c0.148-0.045,0.297-0.094,0.449-0.125c0.036-0.007,0.074-0.011,0.111-0.019
				c0.02-0.003,0.027-0.004,0.06-0.008c0.014-0.002,0.028-0.005,0.042-0.008c0.165-0.033,0.34-0.15,0.387-0.318
				c0.004-0.015,0.005-0.082,0.007-0.115C165.379,252.619,165.2,252.352,165.171,252.333z"/>
		</g>
		<path style="fill:#242643;" d="M165.394,257.118c-0.075-0.391-0.263-0.704-0.616-0.751c-0.26-0.035-0.505,0.089-0.638,0.314
			c-0.104,0.177-0.137,0.386-0.157,0.591c-0.031,0.317-0.033,0.637-0.006,0.954c-0.003-0.041,0.006-0.086,0.007-0.127
			c-0.007,0.41,0.021,0.888,0.539,0.958c0.262,0.035,0.483-0.088,0.631-0.302C165.37,258.441,165.505,257.695,165.394,257.118z"/>
		<path style="fill:#D06867;" d="M165.633,266.331c-0.042-0.043-0.119-0.086-0.153-0.106c-0.034-0.02-0.107-0.071-0.165-0.094
			c-0.027-0.011-0.054-0.022-0.082-0.033c-0.061-0.023-0.124-0.042-0.188-0.058c-0.264-0.067-0.534-0.097-0.806-0.067
			c-0.251,0.028-0.505,0.079-0.729,0.201c-0.21,0.115-0.461,0.301-0.497,0.552c-0.019,0.133,0.055,0.294,0.217,0.284
			c0.211-0.013,0.356-0.109,0.563-0.166c0.214-0.059,0.297-0.083,0.483-0.086c0.225-0.004,0.402,0.02,0.578,0.056
			c0.135,0.028,0.264,0.051,0.4,0.063c-0.024-0.002-0.013,0,0.034,0.007c0.044,0.013,0.087,0.016,0.131,0.009
			c0.08-0.005,0.141-0.035,0.211-0.067c0.092-0.042,0.158-0.194,0.118-0.29C165.718,266.46,165.691,266.39,165.633,266.331z"/>
	</g>
	<g>
		<path style="fill:#DB9486;" d="M407.259,186.298c0,0-0.22,8.779-0.22,11.194c0,2.414,7.682,2.634,7.682,2.634
			s4.609-7.243,5.048-13.827C420.208,179.714,407.259,186.298,407.259,186.298z"/>
		<path style="fill:#DB9486;" d="M293.568,177.3c0,0-4.39-14.047-1.756-19.973c2.634-5.926,13.827,12.071,13.827,12.071
			s-4.39,4.17-3.731,8.56C302.567,182.348,293.568,177.3,293.568,177.3z"/>
		<path style="fill:#242643;" d="M399.504,453.113c-2.048,0.732-3.283,5.457-2.195,8.34c1.089,2.883,23.265,2.926,26.484,2.195
			c3.219-0.732,2.487-5.121-1.61-6.877c-4.097-1.756-16.534-3.804-16.973-3.804C404.771,452.966,399.504,453.113,399.504,453.113z"
			/>
		<path style="fill:#242643;" d="M250.111,418.874c-2.027-0.82-7.609-0.585-8.779,1.024c-1.171,1.609-1.61,13.022-4.682,17.412
			c-3.073,4.39-0.439,7.023,3.365,5.706c3.804-1.317,11.413-10.828,12.73-17.119C254.062,419.605,250.111,418.874,250.111,418.874z"
			/>
		<path style="fill:#DB9486;" d="M267.523,411.119c0,0-16.095,6.584-18.436,7.462c-2.341,0.878-0.585,7.462,1.61,7.901
			c2.195,0.439,20.192-3.219,21.07-3.804C272.644,422.093,267.523,411.119,267.523,411.119z"/>
		<path style="fill:#DB9486;" d="M394.01,435.063c0,0,4.198,16.875,4.73,19.319c0.532,2.443,7.3,1.654,8.051-0.455
			c0.75-2.109-0.278-20.445-0.731-21.398C405.607,431.575,394.01,435.063,394.01,435.063z"/>
		<path style="fill:#464A8A;" d="M317.272,327.863c0,0-0.878,41.116-1.024,44.042c-0.146,2.926-45.383,36.004-51.212,38.189
			c-2.341,0.878,2.195,15.217,4.536,15.071s60.43-25.752,67.746-30.288c7.316-4.536,17.412-30.581,17.412-30.581
			s18.144,18.29,19.607,22.241c1.463,3.951,18.29,49.603,19.022,51.358c0.732,1.756,11.12,0.439,13.608-1.171
			c2.487-1.609-7.462-55.163-9.072-62.04c-1.609-6.877-22.533-47.847-22.533-47.847L317.272,327.863z"/>
		<path style="fill:#242643;" d="M341.117,246.436c-12.437-2.78-21.651-17.632-25.016-27.435
			c-3.365-9.803-11.852-40.97-12.291-41.994c-0.439-1.024-11.413-0.585-11.998,0.732c-0.585,1.317,3.365,35.117,6.146,46.676
			c2.78,11.559,18.875,35.702,20.046,38.629c1.171,2.926-1.61,51.505-4.829,65.405c0,0,15.071,5.853,35.409,6.438
			c20.339,0.585,30.142-5.999,30.142-5.999s-6.533-58.882-5.853-62.625c0.293-1.609,29.996-23.85,34.385-28.679
			c4.39-4.829,9.511-37.897,9.511-39.067c0-1.171-9.95-3.365-10.828-3.219s-9.072,27.362-9.95,29.849
			c-0.878,2.487-26.045,20.631-28.971,21.655c-2.926,1.024-10.47,2.689-10.47,2.689l-7.82-2.835L341.117,246.436z"/>
		<path style="fill:#DB9486;" d="M345.94,236.147c0,0-0.804,7.234-4.823,10.289c0,0,5.948,7.716,15.433,3.054
			c0,0-1.125-9.324-1.125-12.7C355.425,233.414,345.94,236.147,345.94,236.147z"/>
		<path style="fill:#9E4E4C;" d="M361.614,235.263c0,0-8.681,2.17-21.702,0.482c-13.022-1.688-13.263-12.539-13.263-12.539
			s-1.688-2.894-2.653-6.029s4.823-13.504,4.823-13.504s-2.016-1.246-1.929-3.858c0.087-2.613,5.787-5.305,5.787-5.305
			s-0.241-2.894,1.447-4.099c1.688-1.206,7.958,1.447,7.958,1.447s9.299-4.495,11.575-3.617c2.275,0.878,1.206,3.858,1.206,3.858
			s9.434,0.307,11.092,1.929c1.658,1.622,0.241,4.582,0.241,4.582s6.511,2.17,7.957,7.958
			C375.6,212.355,375.359,232.128,361.614,235.263z"/>
		<path style="fill:#E6B05C;" d="M385.455,177.069c0,0-11.281-0.982-21.826,2.677c-10.545,3.659-55.435,14.32-81.882-32.924
			c-26.447-47.243,9.979-93.373,52.051-95.608c42.073-2.236,56.813,29.992,60.808,46.032c3.996,16.04,1.18,36.789,11.056,46.865
			C415.538,154.189,385.455,177.069,385.455,177.069z"/>
		<path style="fill:#242643;" d="M416.99,188.257c0,0,8.632,5.62,14.303-2.479c5.672-8.098-2.876-15.611-2.876-15.611
			L416.99,188.257z"/>
		<path style="fill:#A29DBC;" d="M388.677,179.717c0,0,21.448,12.714,26.596,13.018c5.148,0.304,16.763-18.613,18.239-22.798
			c1.476-4.185-27.349-23.45-27.349-23.45L388.677,179.717z"/>
		<path style="fill:#828097;" d="M382.128,173.355c-1.716,3.876,3.923,12.546,9.479,8.769c5.556-3.777,17.496-24.88,20.709-30.582
			c3.213-5.702-5.042-12.975-9.876-10.077C397.605,144.362,387.863,160.402,382.128,173.355z"/>
		<path style="fill:#DB9486;" d="M336.777,214.766c0,0-5.064,0-5.787,4.34s4.341,5.305,4.341,5.305s3.617,18.809,18.327,16.88
			c14.709-1.929,13.504-24.355,13.504-24.355s-5.305-1.206-6.993-3.858c-1.688-2.653-8.199-1.688-10.128-3.617
			c-1.929-1.929-4.823-1.447-5.787-4.099C344.252,205.362,339.912,213.319,336.777,214.766z"/>
		<path style="fill:#763C3A;" d="M368.723,215.413c-0.452-0.148-0.836-0.263-1.318-0.278c-0.553-0.017-1.105,0.014-1.658-0.015
			c-0.932-0.049-1.867-0.193-2.738-0.538c-0.816-0.323-1.584-0.821-2.143-1.504c-0.555-0.678-0.843-1.528-1.568-2.065
			c-1.536-1.14-3.861-0.759-5.646-0.82c-0.893-0.031-1.804-0.135-2.637-0.48c-0.829-0.344-1.327-0.937-1.898-1.597
			c-0.64-0.739-1.47-1.05-2.385-1.316c-0.874-0.255-1.712-0.623-2.2-1.409c-0.034-0.189-0.142-0.348-0.379-0.389
			c-0.554-0.095-0.832,0.661-1.046,1.037c-1.138,2.004-2.177,4.169-3.653,5.953c-0.788,0.952-1.737,1.784-2.862,2.31
			c-0.538,0.252-1.129,0.424-1.72,0.479c-0.435,0.041-1.119-0.117-1.457,0.183c-0.061,0.054-0.058,0.141-0.027,0.208
			c0.161,0.351,0.638,0.372,0.982,0.413c0.51,0.061,1.031,0.004,1.533-0.098c1.009-0.205,1.993-0.668,2.813-1.289
			c1.762-1.335,2.894-3.29,3.973-5.176c0.291-0.508,0.581-1.016,0.872-1.523c0.204-0.357,0.451-0.723,0.659-1.098
			c0.149,0.279,0.37,0.529,0.622,0.72c0.739,0.56,1.691,0.664,2.51,1.055c0.865,0.412,1.278,1.307,2.006,1.89
			c0.669,0.536,1.478,0.873,2.31,1.061c0.996,0.225,2.017,0.248,3.034,0.251c1.094,0.004,2.288-0.067,3.336,0.3
			c0.972,0.34,1.246,1.305,1.823,2.061c0.549,0.719,1.273,1.296,2.077,1.709c0.987,0.507,2.057,0.784,3.153,0.923
			c0.585,0.074,1.174,0.11,1.763,0.12c0.697,0.012,1.232-0.091,1.872-0.35C369.06,216.005,369.1,215.536,368.723,215.413z"/>
		<path style="fill:#D37667;" d="M354.363,241.181c-0.098-0.19-0.312-0.287-0.516-0.296c-0.714-0.031-1.437,0.082-2.155,0.067
			c-0.715-0.016-1.43-0.06-2.137-0.167c-0.712-0.108-1.418-0.263-2.121-0.418c-0.612-0.135-1.299-0.435-1.932-0.314
			c-0.127,0.024-0.186,0.193-0.121,0.297c0.364,0.58,1.156,0.826,1.763,1.066c0.72,0.285,1.47,0.463,2.233,0.589
			c0.764,0.125,1.539,0.212,2.314,0.224c0.754,0.011,1.583,0.033,2.313-0.169c0.194-0.054,0.372-0.217,0.418-0.417
			C354.471,241.431,354.46,241.372,354.363,241.181z"/>
		<path style="fill:#D37667;" d="M333.855,217.271c-0.358-0.041-0.702,0.245-0.928,0.497c-0.25,0.278-0.419,0.643-0.522,1
			c-0.11,0.381-0.132,0.761-0.069,1.15c0.03,0.185,0.078,0.352,0.172,0.514c0.055,0.095,0.112,0.2,0.199,0.267
			c0.039,0.035,0.084,0.059,0.136,0.071c0.029,0.008,0.033,0.01,0.01,0.006c-0.027-0.018,0.061,0.05,0.073,0.058
			c0.166,0.109,0.405-0.034,0.398-0.228c0-0.007,0.002-0.097-0.002-0.106c0.006-0.021,0.019-0.04,0.02-0.062
			c0.009-0.069-0.004-0.132-0.015-0.2c-0.002-0.014-0.01-0.136-0.006-0.046c-0.005-0.095-0.02-0.188-0.037-0.282
			c-0.001-0.006-0.006-0.035-0.01-0.057c-0.002-0.021-0.007-0.055-0.007-0.062c-0.013-0.15-0.01-0.302-0.005-0.452
			c0.002-0.056,0.007-0.111,0.013-0.166c0.001-0.005,0.009-0.067,0.011-0.077c0.006-0.034,0.013-0.068,0.021-0.101
			c0.015-0.067,0.033-0.134,0.054-0.199c0.01-0.033,0.021-0.065,0.033-0.098c0.001-0.004,0.016-0.042,0.024-0.062
			c0.056-0.126,0.125-0.246,0.192-0.366c0.144-0.258,0.353-0.455,0.449-0.729C334.111,217.398,333.981,217.286,333.855,217.271z"/>
		<path style="fill:#D37667;" d="M334.809,220.71c-0.042-0.159-0.118-0.292-0.218-0.421c-0.04-0.052-0.085-0.1-0.128-0.15
			c-0.056-0.066-0.125-0.1-0.203-0.117c-0.039-0.025-0.076-0.048-0.125-0.048c0.022,0.006,0.043,0.012,0.065,0.018
			c-0.029-0.013-0.07-0.021-0.094-0.034c-0.022-0.012-0.05-0.04-0.072-0.056c-0.037-0.026-0.071,0.023-0.056,0.056
			c0.031,0.067,0.03,0.076,0.029,0.145c0.006-0.022,0.012-0.043,0.018-0.065c-0.024,0.052-0.025,0.096-0.022,0.152
			c-0.024,0.096-0.017,0.191-0.026,0.296c-0.004,0.049-0.008,0.1-0.011,0.149c-0.001,0.016,0,0.002,0.001-0.005
			c-0.005,0.031-0.01,0.062-0.012,0.093c-0.001,0.03,0,0.06,0,0.089c-0.001,0.043-0.006,0.087-0.01,0.13c0,0,0,0.002,0,0.002
			c-0.01,0.063-0.019,0.126-0.02,0.19c-0.001,0.051-0.005,0.102-0.008,0.153c-0.003,0.048,0.005,0.094,0.012,0.141
			c-0.001-0.009-0.002-0.011,0.001,0.023c0.008,0.086,0.004,0.173,0.039,0.254c0.057,0.136,0.175,0.221,0.322,0.23
			c0.212,0.014,0.341-0.171,0.445-0.326C334.908,221.349,334.885,220.997,334.809,220.71z"/>
		<path style="fill:#31345F;" d="M356.53,249.003c-0.688,0.272-1.297,0.709-1.98,1c-0.694,0.297-1.424,0.513-2.164,0.661
			c-1.439,0.288-2.96,0.275-4.39-0.056c-1.361-0.315-2.618-0.904-3.77-1.69c-0.568-0.387-1.079-0.839-1.578-1.31
			c-0.473-0.446-0.952-1.084-1.533-1.382c-0.138-0.071-0.344,0.013-0.332,0.19c0.046,0.673,0.546,1.332,0.959,1.837
			c0.498,0.611,1.094,1.131,1.722,1.605c1.236,0.933,2.689,1.609,4.195,1.971c1.6,0.385,3.261,0.413,4.877,0.114
			c0.837-0.155,1.648-0.405,2.432-0.735c0.734-0.309,1.563-0.661,2.122-1.245C357.457,249.582,357.095,248.78,356.53,249.003z"/>
		<path style="fill:#31345F;" d="M303.707,176.548c-1.03,0.006-2.067-0.18-3.097-0.227c-0.994-0.045-1.99-0.048-2.984-0.007
			c-0.995,0.041-1.986,0.13-2.973,0.26c-0.975,0.128-2.066,0.205-2.949,0.668c-0.434,0.227-0.19,0.823,0.232,0.856
			c0.964,0.076,1.987-0.219,2.944-0.327c0.988-0.111,1.982-0.183,2.975-0.215c0.994-0.032,1.99-0.023,2.983,0.03
			c0.94,0.05,1.931,0.272,2.868,0.205C304.496,177.735,304.516,176.543,303.707,176.548z"/>
		<path style="fill:#31345F;" d="M417.46,198.56c-0.175-0.537-0.68-0.685-1.159-0.906c-0.555-0.255-1.119-0.49-1.689-0.707
			c-1.145-0.437-2.319-0.798-3.504-1.11c-1.157-0.305-2.33-0.552-3.503-0.785c-0.27-0.054-2.47-0.568-2.336,0.159
			c0.144,0.783,1.848,0.887,2.449,1.02c1.099,0.243,2.193,0.508,3.28,0.802c1.082,0.292,2.153,0.625,3.201,1.022
			c0.54,0.204,1.074,0.427,1.598,0.671c0.446,0.208,0.855,0.53,1.358,0.374C417.373,199.031,417.536,198.791,417.46,198.56z"/>
		<path style="fill:#31345F;" d="M366.462,302.988c-1.53,0.479-3.012,1.27-4.466,1.942c-1.448,0.669-2.931,1.263-4.437,1.792
			c-1.497,0.526-3.021,0.977-4.564,1.347c-1.593,0.382-3.236,0.699-4.882,0.537c-1.585-0.156-3.069-0.831-4.473-1.542
			c-1.352-0.685-2.657-1.462-3.915-2.308c-2.509-1.688-4.818-3.651-7.028-5.71c-1.246-1.161-2.449-2.366-3.648-3.576
			c-1.145-1.156-2.267-2.42-3.585-3.381c-0.109-0.08-0.242,0.073-0.179,0.179c0.805,1.347,1.931,2.538,2.971,3.706
			c1.042,1.17,2.12,2.311,3.22,3.428c2.174,2.208,4.486,4.281,6.999,6.097c1.255,0.907,2.56,1.747,3.917,2.495
			c1.403,0.774,2.882,1.514,4.451,1.883c3.321,0.782,6.938-0.335,10.091-1.36c1.777-0.578,3.511-1.27,5.202-2.066
			c1.613-0.76,3.357-1.672,4.629-2.944C366.978,303.293,366.763,302.894,366.462,302.988z"/>
		<path style="fill:#31345F;" d="M366.731,292.98c-0.42,0.226-0.842,0.377-1.249,0.646c-0.337,0.223-0.669,0.453-1.002,0.681
			c-0.723,0.496-1.461,0.975-2.207,1.436c-1.465,0.907-2.993,1.713-4.558,2.435c-1.581,0.73-3.217,1.344-4.876,1.872
			c-0.837,0.266-1.677,0.524-2.528,0.743c-0.393,0.101-0.782,0.207-1.169,0.326c-0.331,0.102-0.751,0.156-0.972,0.437
			c-0.037,0.047-0.034,0.106,0.018,0.141c0.298,0.199,0.7,0.114,1.045,0.091c0.441-0.029,0.872-0.09,1.306-0.169
			c0.866-0.158,1.728-0.335,2.578-0.564c1.715-0.46,3.381-1.069,5.009-1.777c1.644-0.715,3.225-1.563,4.744-2.516
			c0.746-0.468,1.466-0.971,2.167-1.505c0.358-0.272,0.711-0.554,1.047-0.854c0.368-0.33,0.603-0.713,0.906-1.09
			C367.136,293.132,366.956,292.858,366.731,292.98z"/>
		<path style="fill:#31345F;" d="M378.603,327.977c-1.844,1.036-3.657,2.057-5.639,2.816c-1.965,0.753-3.997,1.326-6.057,1.754
			c-4.417,0.917-8.944,1.129-13.444,1.085c-4.503-0.044-9.008-0.256-13.504-0.507c-4.253-0.238-8.508-0.579-12.71-1.296
			c-2.335-0.399-4.653-0.912-6.926-1.582c-1.149-0.339-2.288-0.72-3.414-1.129c-1.125-0.409-2.21-0.95-3.376-1.212
			c-0.382-0.086-0.788,0.436-0.422,0.725c0.839,0.661,1.781,1.052,2.765,1.461c1.012,0.421,2.038,0.798,3.081,1.132
			c2.052,0.657,4.146,1.178,6.26,1.596c4.259,0.843,8.591,1.278,12.92,1.567c4.588,0.306,9.196,0.554,13.793,0.658
			c4.648,0.105,9.321-0.033,13.91-0.832c2.35-0.409,4.673-0.996,6.917-1.809c2.26-0.819,4.587-1.821,6.532-3.251
			C379.981,328.644,379.385,327.538,378.603,327.977z"/>
		<path style="fill:#616EA4;" d="M330.227,335.968c-0.442,0.224-0.756,0.654-1.087,1.012c-0.355,0.384-0.709,0.77-1.076,1.144
			c-0.747,0.761-1.555,1.475-2.406,2.118c-0.839,0.635-1.731,1.181-2.643,1.702c-0.873,0.499-1.963,0.912-2.66,1.656
			c-0.207,0.221-0.045,0.525,0.23,0.555c1.074,0.117,2.235-0.49,3.154-0.973c1.003-0.527,1.939-1.194,2.828-1.893
			c0.867-0.682,1.667-1.44,2.402-2.263c0.666-0.746,1.631-1.746,1.752-2.777C330.751,335.984,330.424,335.868,330.227,335.968z"/>
		<path style="fill:#616EA4;" d="M355.569,356.731c-0.037-0.913-0.074-1.825-0.112-2.738c-0.076-1.865-0.166-3.73-0.252-5.595
			c-0.083-1.826-0.168-3.651-0.267-5.476c-0.099-1.82-0.148-3.664-0.406-5.469c0-0.002,0.001-0.005,0-0.007
			c0-0.002-0.001-0.002-0.002-0.004c-0.004-0.025-0.005-0.05-0.009-0.075l-0.02,0.012c-0.09-0.297-0.539-0.284-0.562,0.067
			c-0.121,1.816-0.015,3.658,0.031,5.476c0.048,1.865,0.11,3.73,0.173,5.595c0.062,1.825,0.119,3.651,0.19,5.476
			c0.018,0.457,0.036,0.913,0.053,1.37c-0.251-0.215-0.513-0.418-0.705-0.621c-0.55-0.582-1.035-1.217-1.463-1.894
			c-0.839-1.325-1.465-2.778-1.906-4.281c-0.515-1.751-0.796-3.571-0.957-5.386c-0.162-1.828-0.169-3.669-0.474-5.476
			c-0.017-0.103-0.193-0.104-0.209,0c-0.313,1.951-0.288,3.954-0.164,5.928c0.117,1.85,0.368,3.698,0.89,5.481
			c0.456,1.559,1.103,3.072,1.987,4.438c0.432,0.668,0.921,1.306,1.462,1.89c0.397,0.429,0.97,1.141,1.593,1.332
			c0.032,0.876-0.002,1.848,0.307,2.675c0.124,0.333,0.613,0.376,0.721,0C355.718,358.586,355.605,357.618,355.569,356.731z"/>
		<path style="fill:#616EA4;" d="M378.49,339.186c-0.59-0.462-1.474-0.518-2.186-0.71c-0.791-0.214-1.572-0.465-2.323-0.795
			c-0.728-0.32-1.413-0.703-2.101-1.1c-0.674-0.388-1.303-0.929-2.033-1.206c-0.064-0.024-0.104,0.054-0.08,0.104
			c0.344,0.722,1.071,1.255,1.686,1.736c0.667,0.522,1.428,0.952,2.19,1.318c0.747,0.359,1.525,0.676,2.322,0.906
			c0.748,0.216,1.721,0.52,2.466,0.199C378.591,339.569,378.626,339.292,378.49,339.186z"/>
		<path style="fill:#616EA4;" d="M269.818,425.1c-0.372-0.625-0.867-1.172-1.262-1.786c-0.376-0.584-0.714-1.193-1.017-1.818
			c-0.635-1.31-1.103-2.694-1.473-4.1c-0.362-1.378-0.629-2.784-0.854-4.191c-0.046-0.285-0.398-3.306-0.879-3.022
			c-0.43,0.254-0.275,1.098-0.243,1.509c0.056,0.721,0.149,1.439,0.249,2.155c0.201,1.446,0.479,2.879,0.865,4.287
			c0.375,1.364,0.855,2.702,1.472,3.976c0.59,1.22,1.341,2.684,2.397,3.564C269.467,426.004,270.111,425.591,269.818,425.1z"/>
		<path style="fill:#616EA4;" d="M407.585,436.395c-0.338-0.89-1.776,0.242-2.271,0.459c-1.108,0.486-2.301,0.789-3.496,0.964
			c-1.271,0.187-2.563,0.201-3.845,0.163c-1.303-0.038-2.725-0.367-4.011-0.107c-0.103,0.021-0.21,0.125-0.23,0.23
			c-0.004,0.02-0.008,0.04-0.01,0.06l-0.002,0.027c-0.007,0.105,0.066,0.239,0.163,0.284c1.061,0.491,2.36,0.503,3.512,0.581
			c1.286,0.088,2.578,0.09,3.861-0.045c1.102-0.116,2.197-0.318,3.254-0.657c0.946-0.304,2.299-0.706,2.951-1.492
			C407.566,436.738,407.649,436.562,407.585,436.395z"/>
		<path style="fill:#616EA4;" d="M320.467,362.556c-0.043-1.827-0.081-3.654-0.13-5.481c-0.1-3.724-0.149-7.49-0.499-11.2
			c-0.011-0.114-0.171-0.116-0.18,0c-0.224,3.245-0.171,6.518-0.204,9.77c-0.033,3.212,0.056,6.428-0.012,9.639
			c-0.062,2.948-0.547,5.763-2.063,8.33c-1.449,2.452-3.482,4.514-5.561,6.435c-2.249,2.079-4.638,4.002-6.993,5.96
			c-2.458,2.043-4.902,4.102-7.34,6.168c-2.362,2.002-4.724,3.99-7.316,5.691c-2.26,1.484-4.65,2.771-7.032,4.044
			c-5.308,2.836-10.903,5.539-15.287,9.751c-0.446,0.429,0.213,1.064,0.672,0.672c4.236-3.628,9.044-6.365,13.915-9.038
			c2.401-1.318,4.803-2.64,7.118-4.107c2.494-1.582,4.859-3.329,7.166-5.172c5.019-4.008,10.106-7.99,14.905-12.263
			c2.128-1.894,4.206-3.902,5.863-6.231c1.662-2.337,2.638-4.914,2.906-7.771C320.556,366.027,320.508,364.287,320.467,362.556z"/>
		<g>
			<path style="fill:#31345F;" d="M248.818,435.436c-0.021-0.054-0.05-0.194-0.092-0.224c-0.012-0.037-0.007-0.078-0.025-0.113
				c-0.02-0.073-0.057-0.136-0.11-0.189c-0.077-0.095-0.091-0.114-0.042-0.059c0.051,0.057,0.036,0.036-0.046-0.065
				c-0.026-0.047-0.06-0.086-0.101-0.117c-0.199-0.192-0.436-0.345-0.667-0.495c-0.388-0.251-0.783-0.493-1.189-0.713
				c-0.439-0.239-0.883-0.476-1.35-0.656c-0.204-0.078-0.413-0.173-0.625-0.226c-0.192-0.048-0.352-0.029-0.541-0.01
				c-0.045,0.005-0.158,0.017-0.178,0.023c-0.075,0.022-0.153,0.057-0.219,0.098c-0.229,0.143-0.306,0.382-0.259,0.638
				c0.031,0.168,0.114,0.263,0.205,0.398c-0.044-0.05-0.042-0.043,0.006,0.02c0.046,0.085,0.107,0.155,0.183,0.21
				c0.187,0.17,0.424,0.286,0.637,0.419c0.336,0.21,0.687,0.392,1.029,0.593c0.342,0.2,0.681,0.406,1.016,0.617
				c0.179,0.113,0.354,0.231,0.532,0.345c0.172,0.111,0.346,0.188,0.528,0.246c0.168,0.069,0.324,0.122,0.52,0.096
				c0.017-0.002,0.023-0.003,0.036-0.004c0.036,0.004,0.072,0.011,0.108,0.012C248.575,436.298,248.974,435.834,248.818,435.436z"/>
			<path style="fill:#31345F;" d="M244.003,432.571c0.009-0.001,0.016-0.001,0.025-0.002
				C244.055,432.566,244.064,432.565,244.003,432.571z"/>
		</g>
		<path style="fill:#31345F;" d="M251.769,431.263c0.065,0.076,0.046,0.022-0.057-0.164c-0.053-0.083-0.112-0.161-0.176-0.236
			c-0.079-0.095-0.163-0.182-0.257-0.262c-0.222-0.191-0.467-0.371-0.719-0.522c-0.429-0.256-0.883-0.473-1.34-0.672
			c-0.501-0.219-1.005-0.435-1.535-0.574c-0.54-0.142-1.149-0.244-1.671-0.001c-0.257,0.12-0.353,0.524-0.197,0.753
			c0.3,0.442,0.812,0.658,1.282,0.877c0.155,0.072,0.308,0.144,0.467,0.209c0.074,0.031,0.07,0.028,0.061,0.024
			c0.008,0.004,0.026,0.012,0.068,0.03c0.228,0.101,0.454,0.205,0.678,0.315c0.42,0.208,0.827,0.438,1.234,0.67
			c0.561,0.319,0.934,0.536,1.581,0.564c0.234,0.01,0.465-0.135,0.581-0.333C251.903,431.714,251.867,431.492,251.769,431.263z"/>
		<path style="fill:#31345F;" d="M410.767,453.614c-0.444,0.058-0.772,0.356-1.069,0.674c-0.269,0.289-0.497,0.618-0.709,0.951
			c-0.185,0.289-0.353,0.584-0.488,0.9c-0.088,0.206-0.182,0.412-0.244,0.627c-0.011,0.039-0.024,0.079-0.032,0.119
			c-0.009,0.069-0.018,0.137-0.028,0.206c0.016-0.115,0.015-0.109-0.002,0.017c-0.017,0.127,0.005,0.247,0.041,0.363
			c0.036,0.272,0.103,0.545,0.414,0.627c0.211,0.056,0.419-0.012,0.572-0.162c0.033-0.032,0.065-0.067,0.096-0.101
			c-0.113,0.123,0.049-0.019,0.115-0.083c0.176-0.172,0.282-0.409,0.384-0.63c0.091-0.197,0.192-0.39,0.284-0.587
			c0.177-0.376,0.38-0.736,0.6-1.088c0.114-0.182,0.225-0.371,0.329-0.559c0.125-0.228,0.258-0.492,0.257-0.756
			C411.286,453.88,411.048,453.578,410.767,453.614z"/>
		<path style="fill:#31345F;" d="M416.156,454.589c-0.449-0.109-0.85,0.225-1.136,0.536c-0.245,0.267-0.447,0.584-0.634,0.892
			c-0.182,0.299-0.342,0.638-0.435,0.973c-0.027,0.098-0.049,0.19-0.063,0.291c-0.019,0.069-0.019,0.138,0,0.207
			c0.003,0.023,0.003,0.023,0.005,0.039c-0.017-0.083-0.003,0.006-0.003,0.035c0.003,0.242,0.046,0.431,0.199,0.621
			c-0.041-0.071-0.083-0.142-0.124-0.212c0.035,0.092,0.053,0.185,0.098,0.275c0.056,0.113,0.208,0.164,0.325,0.132
			c0.039-0.011,0.079-0.024,0.114-0.043c0.027-0.014,0.034-0.019,0.041-0.024c0.023-0.002,0.047-0.005,0.069-0.011
			c0.058-0.016,0.124-0.043,0.176-0.073c0.022-0.013,0.167-0.098,0.172-0.126l-0.102,0.034c0.062-0.026,0.124-0.052,0.186-0.078
			c0.097-0.051,0.148-0.109,0.21-0.184c0.244-0.295,0.46-0.603,0.651-0.935c0.186-0.323,0.383-0.648,0.52-0.995
			c0.076-0.194,0.162-0.391,0.179-0.599C416.632,455.032,416.495,454.672,416.156,454.589z"/>
		<g>
			<g>
				<path style="fill:#F6DE90;" d="M351.674,62.188c0.129,0.132,0.28,0.35-0.012-0.126c-0.212-0.345-0.512-0.669-0.79-0.956
					c-0.489-0.503-1.051-0.987-1.678-1.306c-1.211-0.616-2.477-0.943-3.799-1.196c-2.313-0.444-4.671-0.747-7.023-0.88
					c-4.372-0.247-8.781,0.171-13.071,1.025c-7.849,1.561-15.396,5.028-21.925,9.625c-1.977,1.392-3.995,2.909-5.694,4.641
					c-1.587,1.619-3.537,4.02-3.889,6.333c-0.362,2.374,1.28,4.022,3.656,3.656c0.514-0.079,0.951-0.236,1.433-0.442
					c0.265-0.113,0.513-0.234,0.772-0.353c-0.196,0.09-0.699,0.284,0.24-0.113c0.911-0.384,1.798-0.983,2.63-1.523
					c0.385-0.249,0.758-0.516,1.124-0.792c-0.08,0.06,0.707-0.54,0.89-0.682c0.025-0.019,0.046-0.034,0.053-0.04
					c0.796-0.59,1.606-1.159,2.411-1.737c2.907-2.086,5.932-3.976,9.151-5.546c0.675-0.329,1.361-0.635,2.046-0.941
					c0.093-0.036,0.61-0.258,0.812-0.338c0.43-0.169,0.863-0.333,1.298-0.491c1.838-0.668,3.715-1.232,5.618-1.683
					c0.911-0.215,1.828-0.405,2.75-0.568c0.425-0.075,0.854-0.133,1.279-0.209c0.01-0.002,0.014-0.002,0.023-0.004
					c0.284-0.035,0.569-0.069,0.854-0.099c1.93-0.202,3.874-0.289,5.815-0.259c1.076,0.017,2.152,0.072,3.224,0.166
					c0.214,0.019,0.429,0.038,0.643,0.06c-0.012-0.001,0.501,0.057,0.72,0.08c0.071,0.01,0.132,0.018,0.149,0.021
					c0.283,0.045,0.566,0.089,0.849,0.138c1.407,0.243,2.779,0.592,4.206,0.724c0.213,0.02,0.41,0.049,0.624,0.049
					c0.113,0,0.7-0.087,1.051-0.14c0.175-0.049,1.426-0.309,1.574-0.371c0.212-0.083,0.421-0.173,0.626-0.27
					c0.215-0.104,0.18-0.078-0.103,0.078C352.763,67.292,353.274,63.825,351.674,62.188z"/>
				<path style="fill:#F6DE90;" d="M348.286,68.265c0.193-0.033,0.063-0.014-0.171,0.021C348.065,68.3,348.1,68.297,348.286,68.265z
					"/>
			</g>
		</g>
		<path style="fill:#F6DE90;" d="M370.354,68.605c-0.609-0.359-1.277-0.639-1.925-0.92c-0.972-0.422-1.95-0.838-2.945-1.202
			c-0.667-0.244-1.306-0.418-2.006-0.537c-0.581-0.098-1.161-0.171-1.747-0.216c-0.542-0.042-1.074,0.123-1.604,0.209
			c0.09-0.012,0.179-0.024,0.268-0.036c-0.745,0.144-1.463,0.436-1.995,1.015c-0.198,0.256-0.395,0.512-0.593,0.768
			c-0.343,0.592-0.516,1.23-0.518,1.915c-0.236,1.84,1.124,3.67,2.675,4.533c0.771,0.429,1.59,0.755,2.408,1.082
			c0.54,0.235,1.077,0.474,1.604,0.737c0.948,0.472,1.859,1.055,2.881,1.359c2.397,0.715,5.375-0.326,6.109-2.904
			C373.599,72.18,372.272,69.735,370.354,68.605z"/>
		<path style="fill:#F6DE90;" d="M393.819,134.701c-0.657-1.628-1.4-3.207-2.144-4.797c-1.419-3.034-2.839-6.068-4.258-9.102
			c-2.645-5.653-5.023-11.601-8.365-16.89c-3.04-4.812-7.219-8.939-12.749-10.681c-5.043-1.589-10.567-0.326-14.586,3.063
			c-4.253,3.587-6.521,8.693-6.503,14.247c0.003,0.812,0.061,1.619,0.16,2.418c-4.269,0.744-8.311,2.618-11.336,5.579
			c-3.698,3.621-4.901,8.862-4.445,13.888c-5.933,2.177-11.223,6.506-13.877,11.791c-2.522,5.023-2.034,10.736,1.751,14.965
			c3.296,3.681,8.144,5.493,12.838,6.597c12.094,2.845,24.677,4.175,37.093,3.6c1.605-0.075,3.152-0.185,4.732-0.473
			c0.666-0.122,1.392-0.169,2.025-0.395c0.769-0.274,1.53-0.655,2.293-0.959c0.315-0.125,0.315-0.615-0.043-0.684
			c-1.281-0.247-2.463-0.582-3.763-0.623c-1.372-0.044-2.715-0.125-4.089-0.104c-2.721,0.042-5.44-0.013-8.159-0.128
			c-5.262-0.223-10.51-0.799-15.701-1.684c-4.973-0.848-9.991-1.929-14.747-3.642c-3.369-1.213-7.213-2.872-9.215-5.831
			c-4.691-6.933,3.661-14.71,9.868-17.44c1.312,4.099,3.822,7.751,7.853,9.695c4.672,2.253,12.571,2.203,13.777-4.155
			c1.077-5.678-4.25-9.841-9.1-11.291c-2.712-0.81-5.606-0.929-8.481-0.518c-0.046-1.746,0.174-3.474,0.729-5.04
			c1.67-4.706,6.405-7.245,11.32-7.954c1.101,2.828,2.757,5.448,4.802,7.687c3.039,3.328,10.712,8.704,14.467,3.558
			c3.289-4.507-0.215-10.468-4.144-13.188c-3.246-2.247-7.208-3.412-11.246-3.582c-0.637-3.941,0.132-8.002,2.921-11.188
			c2.507-2.864,6.187-4.526,10.006-3.81c4.156,0.78,7.56,3.691,9.972,7.039c2.963,4.113,4.816,8.938,6.857,13.543
			c2.29,5.166,4.581,10.333,6.871,15.499c0.583,1.314,1.212,2.606,1.882,3.878c0.667,1.266,1.767,2.194,2.768,3.199
			c1.048,1.052,2.89,0.026,2.792-1.368C394.53,137.758,394.45,136.264,393.819,134.701z M343.206,136.503
			c1.778,0.658,3.646,1.732,4.635,3.408c0.842,1.428,0.8,3.526-0.95,4.189c-1.901,0.721-4.326,0.053-6.048-0.847
			c-1.818-0.951-3.214-2.488-4.171-4.29c-0.495-0.93-0.912-1.947-1.238-3.012C338.029,135.496,340.701,135.575,343.206,136.503z
			 M353.262,118.291c3.323,0.66,7.062,2.37,8.351,5.546c0.081,0.199,0.154,0.4,0.22,0.604c0.019,0.06,0.075,0.357,0.089,0.41
			c0.019,0.284,0.013,0.844,0.033,0.679c-0.065,0.54-0.093,0.387-0.176,0.667c-0.001,0-0.002,0-0.003,0
			c0.028-0.128-0.022-0.073-0.053-0.003c-1.754-0.062-3.726-1.513-4.993-2.59c-1.74-1.478-3.197-3.363-4.287-5.445
			C352.718,118.201,352.994,118.239,353.262,118.291z"/>
		<path style="fill:#6A687A;" d="M411.381,152.306c-0.137-0.512-0.767-0.64-1.138-0.3c-0.984,0.902-1.327,2.312-1.791,3.523
			c-0.522,1.364-1.097,2.706-1.721,4.026c-1.229,2.599-2.595,5.156-4.111,7.6c-1.522,2.455-3.211,4.805-5.071,7.016
			c-0.886,1.053-1.807,2.076-2.762,3.067c-1.015,1.055-2.363,1.907-2.573,3.415c-0.084,0.601,0.247,1.322,0.973,1.278
			c0.834-0.051,1.309-0.169,1.929-0.749c0.574-0.536,1.122-1.105,1.665-1.671c0.998-1.041,1.959-2.117,2.882-3.225
			c1.968-2.363,3.779-4.861,5.395-7.477c1.585-2.567,2.948-5.229,4.096-8.018c0.572-1.39,1.094-2.801,1.564-4.229
			C411.16,155.219,411.76,153.721,411.381,152.306z"/>
		<path style="fill:#828097;" d="M414.208,158.434c-0.082-0.104-0.23-0.048-0.294,0.038c-0.608,0.819-0.729,1.887-0.915,2.865
			c-0.184,0.967-0.362,1.936-0.488,2.912c-0.28,2.182-0.66,4.353-1.128,6.502c-0.918,4.211-2.815,8.197-3.35,12.472
			c-0.107,0.851,1.157,1.31,1.691,0.701c3.006-3.429,4.018-8.372,4.823-12.753c0.418-2.272,0.712-4.609,0.757-6.922
			C415.339,162.492,415.352,159.872,414.208,158.434z"/>
		<path style="fill:#828097;" d="M423.102,162.83c-0.103-0.154-0.357-0.184-0.452,0c-0.74,1.432-0.65,3.056-0.777,4.632
			c-0.148,1.828-0.352,3.64-0.684,5.445c-0.316,1.718-0.711,3.422-1.192,5.101c-0.419,1.464-1.508,3.661-0.924,5.173
			c0.242,0.628,0.925,1.017,1.565,0.637c1.517-0.9,1.857-3.237,2.199-4.833c0.393-1.832,0.687-3.685,0.884-5.548
			c0.198-1.858,0.304-3.732,0.288-5.601C423.996,166.15,424.063,164.278,423.102,162.83z"/>
		<path style="fill:#E6B05C;" d="M280.461,163.395c-0.865-0.354-2.022,0.024-2.871,0.277c-1.185,0.353-2.29,0.853-3.43,1.345
			c-2.27,0.98-4.432,2.324-6.52,3.641c-2.047,1.291-4.095,2.576-6.072,3.971c-1.107,0.781-2.209,1.548-3.167,2.514
			c-1.161,1.171-1.668,2.377-1.741,4.011c-0.031,0.684,0.51,1.337,1.153,1.514c1.566,0.432,2.795,0.281,4.259-0.426
			c1.11-0.535,2.062-1.227,3.057-1.943c2.033-1.464,3.996-3.02,5.988-4.538c1.981-1.509,4.053-3.041,5.825-4.797
			c0.854-0.846,1.688-1.67,2.445-2.601c0.581-0.714,1.36-1.621,1.362-2.59C280.749,163.584,280.623,163.461,280.461,163.395z"/>
		<g>
			<path style="fill:#F6DE90;" d="M267.474,148.019c-0.001,0.002-0.003,0.003-0.004,0.005
				C267.408,148.104,267.405,148.107,267.474,148.019z"/>
			<path style="fill:#E6B05C;" d="M267.761,146.593c-0.012,0.001-0.023,0.003-0.035,0.004c-0.503-0.453-1.302-0.565-1.944-0.581
				c-0.886-0.023-1.819,0.177-2.678,0.38c-0.525,0.124-1.016,0.257-1.51,0.485c-0.357,0.165-0.708,0.345-1.056,0.527
				c-1.03,0.54-2.169,1.552-2.028,2.799c-0.046,0.508,0.272,1.087,0.75,1.274c1.009,0.72,2.377,0.227,3.406-0.286
				c0.352-0.176,0.717-0.33,1.068-0.508c0.326-0.165,0.623-0.389,0.932-0.585c0.705-0.449,1.436-0.878,2.091-1.399
				c0.137-0.109,0.284-0.215,0.414-0.333c0.122-0.095,0.221-0.211,0.299-0.346c0.031-0.041,0.073-0.095,0.139-0.179
				c0.148-0.195,0.245-0.377,0.311-0.581c0.007-0.003,0.014-0.006,0.021-0.009C268.258,147.12,268.102,146.552,267.761,146.593z"/>
		</g>
		<path style="fill:#E6B05C;" d="M257.617,108.42c-2.084-0.502-4.229-0.692-6.362-0.873c-2-0.17-4.04-0.198-6.04-0.011
			c-1.915,0.179-5.687,0.798-5.687,3.432c0,2.592,3.859,2.979,5.687,3.057c2.008,0.087,4.033,0.045,6.04-0.017
			c2.015-0.062,4.02-0.059,6.032-0.211c1.343-0.101,5.265-0.153,5.073-2.285C262.167,109.38,259.368,108.841,257.617,108.42z"/>
		<path style="fill:#E6B05C;" d="M265.392,89.118c0.357-0.146,0.517-0.506,0.337-0.865c-0.007-0.084-0.019-0.168-0.043-0.247
			c-0.028-0.207-0.092-0.399-0.185-0.585c-0.064-0.198-0.158-0.388-0.256-0.546c-0.263-0.429-0.609-0.717-1.01-1.008
			c-0.341-0.247-0.677-0.5-1.011-0.756c0.16,0.124,0.32,0.247,0.48,0.371c-0.796-0.616-1.624-1.195-2.605-1.398l0.068,0.009
			c-0.257-0.068-0.483-0.143-0.751-0.179c-0.269-0.036-0.523-0.018-0.779,0.02c-0.22,0.011-0.438,0.038-0.647,0.094
			c-0.076-0.005-0.152-0.005-0.227-0.01c-1.033-0.074-1.701,1.215-1.178,2.053c0.035,0.056,0.067,0.114,0.103,0.17
			c0.06,0.234,0.156,0.458,0.271,0.673c0.094,0.223,0.202,0.437,0.357,0.637c0.167,0.216,0.335,0.351,0.533,0.529
			c-0.035-0.046-0.071-0.092-0.106-0.137c0.244,0.297,0.494,0.534,0.861,0.757c0.306,0.185,0.627,0.313,0.962,0.448
			c0.351,0.141,0.694,0.268,1.061,0.359c0.344,0.086,0.69,0.172,1.037,0.244c0.609,0.126,1.377,0.135,1.958-0.175
			c0.198-0.063,0.376-0.156,0.542-0.286C265.244,89.243,265.32,89.184,265.392,89.118z"/>
		<path style="fill:#E6B05C;" d="M277.176,65.261c-0.303-1.014-0.886-2.04-1.394-2.967c-0.998-1.821-2.303-3.525-3.508-5.213
			c-1.271-1.779-2.62-3.585-4.18-5.124c-0.779-0.769-1.565-1.482-2.431-2.152c-0.462-0.358-0.962-0.562-1.503-0.773
			c-0.529-0.207-0.965-0.469-1.552-0.466c-0.605,0.003-1.058,0.495-1.084,1.084c-0.022,0.506,0.175,0.93,0.337,1.392
			c0.193,0.554,0.358,1.082,0.659,1.588c0.598,1.003,1.375,1.891,2.09,2.811c1.288,1.658,2.76,3.19,4.181,4.735
			c1.413,1.537,2.707,3.216,4.189,4.683c0.74,0.733,1.49,1.61,2.38,2.161c0.397,0.246,1.345,0.829,1.794,0.421
			C277.657,66.984,277.34,65.811,277.176,65.261z"/>
		<path style="fill:#E6B05C;" d="M293.662,50.423c0.015-0.336-0.105-0.606-0.216-0.904c-0.176-0.473-0.347-0.945-0.601-1.382
			c-0.261-0.451-0.515-0.887-0.908-1.242c-0.119-0.108-0.237-0.217-0.358-0.324c-0.28-0.246-0.444-0.358-0.758-0.49
			c-0.039-0.016-0.074-0.027-0.112-0.04c-0.197-0.125-0.4-0.244-0.626-0.303c-0.13-0.034-0.271-0.048-0.403-0.071
			c-0.327-0.058-0.681-0.061-0.974,0.127c-0.266,0.172-0.515,0.434-0.581,0.755c-0.038,0.186-0.074,0.37-0.099,0.559
			c-0.033,0.25-0.004,0.49,0.037,0.731c-0.014,0.257,0.001,0.513,0.087,0.776c0.053,0.16,0.12,0.318,0.179,0.476
			c0.085,0.225,0.174,0.511,0.285,0.693c0.128,0.211,0.303,0.402,0.455,0.596c0.109,0.139,0.219,0.277,0.329,0.415
			c0.222,0.28,0.478,0.505,0.744,0.743c0.272,0.244,0.533,0.484,0.875,0.629c0.27,0.114,0.517,0.157,0.77,0.159
			c0.024,0.005,0.047,0.01,0.071,0.015c0.325,0.071,0.712,0.056,1.002-0.131c0.266-0.171,0.547-0.45,0.598-0.777
			c0.014-0.09,0.028-0.181,0.042-0.271C293.59,50.922,293.65,50.671,293.662,50.423z"/>
		<path style="fill:#E6B05C;" d="M315.639,40.437c0.003-0.28,0.014-0.519-0.04-0.8c-0.24-1.234-0.684-2.433-1.07-3.625
			c-0.376-1.159-0.728-2.327-1.181-3.46c-0.475-1.187-0.859-2.329-1.771-3.255c-0.378-0.384-1.042-0.197-1.187,0.314
			c-0.335,1.179-0.157,2.275-0.012,3.472c0.159,1.308,0.423,2.595,0.668,3.89c0.226,1.195,0.419,2.406,0.771,3.572
			c0.095,0.316,0.243,0.572,0.38,0.842c0.166,0.325,0.247,0.685,0.433,1.004c0.365,0.625,0.732,1.151,1.432,1.407
			c0.361,0.132,0.876-0.012,1.128-0.298c0.471-0.536,0.534-1.14,0.558-1.83C315.763,41.252,315.635,40.848,315.639,40.437z"/>
		<g>
			<path style="fill:#F6DE90;" d="M337.983,35.735C338.116,35.632,338.118,35.631,337.983,35.735L337.983,35.735z"/>
			<path style="fill:#E6B05C;" d="M340.977,39.767c-0.064-0.607-0.092-1.221-0.298-1.799c-0.083-0.231-0.165-0.463-0.248-0.694
				c-0.033-0.093-0.065-0.185-0.099-0.278c-0.129-0.353-0.238-0.554-0.47-0.843c-0.151-0.189-0.29-0.36-0.507-0.487
				c-0.498-0.292-1.051-0.211-1.477,0.15c-0.011,0.008-0.015,0.012-0.027,0.021c-0.084,0.083-0.153,0.176-0.207,0.278
				c-0.052,0.101-0.296,0.635-0.045,0.127c-0.19,0.384-0.296,0.738-0.337,1.17c-0.04,0.424-0.08,0.85-0.108,1.275
				c-0.034,0.537,0.129,1.131,0.212,1.667c0.035,0.226,0.062,0.456,0.127,0.676c0.099,0.337,0.269,0.614,0.46,0.902
				c0.354,0.534,0.916,0.837,1.565,0.75c0.638-0.085,1.101-0.522,1.305-1.125c0.124-0.365,0.218-0.71,0.211-1.104
				C341.032,40.223,341.001,39.995,340.977,39.767z"/>
			<path style="fill:#F6DE90;" d="M337.878,35.816C337.878,35.816,337.878,35.816,337.878,35.816
				c0.043-0.033,0.076-0.058,0.105-0.081C337.951,35.76,337.925,35.78,337.878,35.816z"/>
		</g>
		<path style="fill:#E6B05C;" d="M366.37,29.002c-0.128-0.244-0.43-0.229-0.617-0.08c-1.119,0.9-1.764,2.254-2.252,3.584
			c-0.481,1.311-0.931,2.633-1.297,3.98c-0.366,1.345-0.747,2.687-1.097,4.035c-0.395,1.521-0.789,3.04-0.188,4.432
			c-0.013-0.022-0.025-0.043-0.038-0.065c0.103,0.684,0.184,1.218,0.699,1.734c0.331,0.332,0.94,0.556,1.401,0.37
			c0.688-0.277,1.031-0.668,1.384-1.195c1.186-0.978,1.406-2.822,1.621-4.264c0.207-1.389,0.413-2.778,0.62-4.167
			c0.216-1.451,0.352-2.916,0.436-4.381C367.118,31.631,367.007,30.212,366.37,29.002z"/>
		<path style="fill:#E6B05C;" d="M386.443,47.321c-0.329-0.192-0.651-0.142-0.981,0c-0.381,0.163-0.734,0.352-1.027,0.657
			c-0.226,0.236-0.44,0.486-0.659,0.728c-0.312,0.346-0.492,0.727-0.698,1.135c-0.126,0.249-0.228,0.5-0.296,0.77
			c-0.017,0.069-0.036,0.138-0.052,0.207c-0.085,0.382-0.032,0.734,0.163,1.055c0.04,0.204,0.111,0.379,0.292,0.518
			c0.196,0.152,0.472,0.231,0.717,0.147c0.018-0.006,0.036-0.012,0.054-0.018c0.264,0.017,0.52-0.019,0.772-0.167
			c0.126-0.074,0.266-0.205,0.388-0.305c0.136-0.112,0.259-0.213,0.367-0.352c0.105-0.135,0.209-0.27,0.314-0.405
			c0.087-0.112,0.173-0.224,0.26-0.336c0.168-0.217,0.248-0.411,0.357-0.673c0.129-0.308,0.271-0.614,0.386-0.928
			c0.14-0.379,0.142-0.795,0.125-1.194C386.91,47.813,386.748,47.499,386.443,47.321z"/>
		<path style="fill:#E6B05C;" d="M416.102,50.47c-0.73,0.11-1.582,0.463-2.197,0.871c-0.729,0.483-1.499,0.864-2.243,1.321
			c-0.699,0.43-1.322,0.982-2.014,1.427c-0.736,0.472-1.426,0.998-2.125,1.522c-1.432,1.075-2.911,2.166-4.227,3.381
			c-0.711,0.656-1.488,1.461-1.942,2.321c0.03-0.057-0.382,0.898-0.221,0.524c-0.11,0.256-0.264,0.516-0.337,0.785
			c-0.026,0.195-0.052,0.39-0.079,0.585c-0.024-0.176-0.041-0.125-0.051,0.151c-0.033,0.123-0.033,0.245-0.017,0.368
			c-0.075,0.208-0.119,0.419-0.091,0.672c0.049,0.443,0.289,0.905,0.769,1.009c0.216,0.047,0.45,0.124,0.668,0.057
			c0.075-0.023,0.107-0.039,0.124-0.051c0.034,0.002,0.063,0.004,0.116,0.006c0.581,0.016,0.931-0.014,1.52-0.172
			c0.969-0.26,1.783-0.766,2.578-1.357c1.564-1.164,2.915-2.669,4.228-4.104c1.217-1.329,2.455-2.682,3.57-4.097
			c0.534-0.678,0.976-1.417,1.52-2.085c0.535-0.657,1.043-1.5,1.249-2.335C417.029,50.747,416.584,50.397,416.102,50.47z"/>
		<g>
			<path style="fill:#F6DE90;" d="M407.197,82.778c0.034-0.029,0.07-0.055,0.105-0.083
				C407.475,82.548,407.564,82.468,407.197,82.778z"/>
			<path style="fill:#E6B05C;" d="M415.217,81.029c-0.078-0.02-0.161-0.024-0.242-0.035c0.001,0,0.001,0,0.002,0
				c-0.001,0-0.002,0-0.004-0.001c-0.1-0.013-0.2-0.031-0.297-0.043c-0.053-0.004-0.079-0.005-0.088-0.004
				c-0.06-0.004-0.119-0.024-0.179-0.022c-0.113,0.002-0.225,0.026-0.338,0.043c-0.002,0-0.003-0.001-0.005-0.001
				c0.04-0.011,0.003-0.014-0.064-0.015c-0.546-0.097-1.159,0.016-1.696,0.054c-0.715,0.05-1.475,0.123-2.169,0.32
				c-0.237,0.067-0.473,0.142-0.71,0.211c-0.142,0.041-0.286,0.077-0.427,0.122c-0.532,0.168-0.879,0.391-1.314,0.734
				c-0.127,0.101-0.257,0.201-0.383,0.303c-0.193,0.164-0.492,0.411-0.399,0.309c-0.178,0.194-0.322,0.41-0.427,0.645
				c-0.128,0.133-0.219,0.288-0.288,0.455c-0.003,0.006-0.012,0.028-0.035,0.082c-0.001,0.002-0.001,0.003-0.001,0.005
				c-0.01,0.028-0.026,0.052-0.034,0.081c0.014-0.034,0.024-0.056,0.034-0.08c-0.202,0.477-0.177,0.909,0.171,1.308
				c0.176,0.202,0.367,0.35,0.578,0.467c0.26,0.26,0.574,0.458,0.939,0.584c0.166,0.058,0.341,0.099,0.51,0.147
				c0.169,0.048,0.338,0.103,0.509,0.14c0.603,0.132,1.11,0.057,1.712-0.034c0.389-0.059,0.793-0.102,1.176-0.193
				c0.573-0.137,1.158-0.397,1.683-0.646c0.346-0.164,0.688-0.337,1.028-0.512c0.277-0.142,0.515-0.319,0.734-0.528
				c0.035-0.028,0.072-0.056,0.131-0.105c0.099-0.077,0.223-0.161,0.319-0.251c0.489-0.457,0.792-1.085,0.794-1.761
				C416.438,82.036,416.014,81.236,415.217,81.029z"/>
		</g>
		<path style="fill:#E6B05C;" d="M433.696,109.902c-1.211-2.193-4.152-2.614-6.388-3.074c-2.276-0.468-4.558-0.854-6.851-1.231
			c-4.097-0.674-8.442-1.668-12.589-1.248c0.006,0.005,0.012,0.009,0.019,0.014c-0.106-0.003-0.212,0.021-0.327,0.079
			c-0.204,0.103-0.393,0.396-0.362,0.631c0.232,1.771,3.001,2.41,4.41,2.944c2.317,0.878,4.692,1.544,7.069,2.237
			c2.297,0.669,4.587,1.34,6.91,1.916c2.254,0.559,5.376,1.646,7.472,0.161C433.857,111.766,434.194,110.804,433.696,109.902z"/>
		<path style="fill:#E6B05C;" d="M417.401,123.866c0.014-0.514-0.264-0.997-0.65-1.32c-0.234-0.196-0.459-0.398-0.733-0.536
			c-0.277-0.139-0.528-0.295-0.832-0.385c-0.085-0.025-0.171-0.051-0.255-0.078c-0.292-0.096-0.513-0.093-0.769-0.063
			c0.052-0.007,0.104-0.014,0.157-0.021c-0.042,0.006-0.084,0.011-0.126,0.016c-0.284,0.001-0.549,0.072-0.795,0.215
			c-0.184,0.099-0.331,0.234-0.442,0.406c-0.3,0.388-0.425,0.891-0.282,1.373c0.06,0.202,0.138,0.404,0.24,0.586
			c0.118,0.209,0.275,0.36,0.447,0.514c0.166,0.149,0.343,0.316,0.543,0.412c0.09,0.044,0.182,0.085,0.274,0.125
			c0.21,0.091,0.421,0.192,0.638,0.266c0.187,0.064,0.486,0.069,0.708,0.078c0.587,0.026,1.172-0.177,1.54-0.639
			c0.002-0.001,0.003-0.003,0.005-0.004C417.318,124.593,417.435,124.206,417.401,123.866z"/>
		<path style="fill:#9E4E4C;" d="M349.726,217.493c-0.011-0.165-0.086-0.318-0.188-0.459c-0.078-0.161-0.199-0.287-0.36-0.429
			c-0.195-0.171-0.407-0.305-0.635-0.429c-0.389-0.212-0.8-0.403-1.224-0.53c-0.419-0.126-0.88-0.217-1.318-0.206
			c-0.234,0.006-0.485,0.035-0.711,0.096c-0.236,0.064-0.449,0.189-0.67,0.29c-0.468,0.212-0.336,0.988,0.143,1.093
			c0.384,0.084,0.764,0.041,1.151,0.073c0.086,0.007,0.173,0.014,0.258,0.024c-0.105-0.012,0.145,0.027,0.174,0.034
			c0.184,0.039,0.366,0.091,0.543,0.154c0.196,0.069,0.21,0.074,0.368,0.148c0.182,0.085,0.361,0.18,0.535,0.281
			c0.189,0.109,0.37,0.208,0.569,0.297c-0.102-0.046,0.104,0.052,0.124,0.062c0.134,0.063,0.267,0.087,0.402,0.085
			c0.159,0.032,0.324,0.042,0.473-0.017c0.142-0.008,0.281-0.042,0.358-0.174C349.794,217.755,349.773,217.621,349.726,217.493z"/>
		<path style="fill:#9E4E4C;" d="M361.973,217.722c-0.203-0.174-0.382-0.301-0.64-0.387c-0.248-0.083-0.52-0.115-0.781-0.141
			c-0.508-0.051-1.033-0.017-1.537,0.06c-0.49,0.075-0.977,0.209-1.438,0.395c-0.521,0.209-0.998,0.449-1.255,0.972
			c-0.156,0.318,0.149,0.733,0.48,0.743c0.501,0.015,0.912-0.246,1.373-0.4c0.071-0.024,0.334-0.1,0.478-0.135
			c0.21-0.051,0.423-0.09,0.638-0.119c0.387-0.051,0.706-0.053,1.139-0.03c0.202,0.01,0.401,0.041,0.602,0.05
			c0.278,0.013,0.472-0.026,0.745-0.071C362.262,218.579,362.292,217.996,361.973,217.722z"/>
		<path style="fill:#9E4E4C;" d="M347.784,219.376c-0.071-0.704-0.345-1.303-1.1-1.026c-0.708,0.259-0.816,0.838-0.908,1.499
			c-0.044,0.317-0.093,0.635-0.099,0.956c-0.009,0.475,0.429,0.984,0.96,0.96C347.787,221.714,347.872,220.249,347.784,219.376z"/>
		<path style="fill:#9E4E4C;" d="M359.709,220.643c-0.071-0.704-0.345-1.303-1.1-1.026c-0.708,0.259-0.816,0.838-0.908,1.499
			c-0.044,0.317-0.094,0.635-0.1,0.956c-0.009,0.475,0.429,0.984,0.96,0.96C359.713,222.981,359.797,221.516,359.709,220.643z"/>
		<g>
			<path style="fill:#D37667;" d="M353.83,226.446l0.111,0.111c-0.027-0.064-0.081-0.094-0.133-0.124
				c-0.006-0.003-0.011-0.007-0.017-0.01c0.017,0.008,0.003,0,0.009,0.002c-0.071-0.038-0.147-0.064-0.226-0.082
				c-0.047-0.022-0.09-0.05-0.148-0.058c-0.062-0.008-0.123-0.008-0.185-0.01c-0.003-0.001,0-0.001-0.004-0.002
				c-0.052-0.022-0.108-0.031-0.168-0.026c-0.024-0.002-0.048-0.004-0.072-0.005c-0.035-0.006-0.071-0.012-0.101-0.017
				c-0.053-0.008-0.105-0.018-0.157-0.03c-0.099-0.022-0.197-0.042-0.293-0.074c-0.017-0.006-0.035-0.012-0.052-0.018
				c-0.008-0.004-0.038-0.016-0.049-0.021c-0.026-0.013-0.051-0.027-0.077-0.04c-0.065-0.033-0.134-0.062-0.204-0.084
				c-0.003-0.003,0-0.002-0.006-0.006c-0.018-0.013-0.039-0.025-0.059-0.036c-0.059-0.036-0.125-0.076-0.191-0.096
				c-0.034-0.019-0.069-0.04-0.105-0.05c-0.005-0.001-0.059-0.011-0.035-0.004c0.013,0.003-0.051-0.025-0.063-0.029
				c-0.047-0.013-0.118-0.012-0.158,0.019c-0.07,0.056-0.082,0.115-0.098,0.199c0.007-0.037-0.006,0.008-0.009,0.02
				c-0.011,0.05-0.009,0.094-0.002,0.143c0.001,0.005,0.017,0.135,0.011,0.073c-0.008-0.079,0.007,0.068,0.017,0.1
				c0.023,0.076,0.057,0.15,0.097,0.217c0.072,0.12,0.134,0.239,0.238,0.337c0.105,0.099,0.221,0.188,0.341,0.268
				c0.26,0.173,0.544,0.262,0.853,0.29c0.151,0.014,0.288-0.015,0.435-0.041c0.185-0.033,0.365-0.113,0.469-0.262
				c0.016-0.013,0.033-0.024,0.048-0.038c0.068-0.064,0.098-0.133,0.118-0.208c0.01-0.024,0.02-0.047,0.03-0.071
				C354.053,226.639,353.948,226.511,353.83,226.446z"/>
			<path style="fill:#D37667;" d="M351.806,225.818c0.001,0,0.002,0.001,0.002,0.001c0.003,0.002,0.007,0.003,0.011,0.005
				C351.859,225.846,351.828,225.824,351.806,225.818z"/>
			<path style="fill:#D37667;" d="M353.83,226.446l-0.017-0.017c0.017,0.01-0.004,0-0.013-0.004
				c0.003,0.002,0.005,0.006,0.008,0.008C353.815,226.436,353.822,226.441,353.83,226.446z"/>
		</g>
		<path style="fill:#FFFFFF;" d="M354.47,230.282c-0.309-0.103-0.708-0.016-1.016,0.003c-0.402,0.025-0.783,0.019-1.184-0.021
			c-0.02-0.002-0.097-0.012-0.035-0.004c-0.053-0.008-0.106-0.017-0.159-0.027c-0.095-0.018-0.189-0.039-0.282-0.064
			c-0.184-0.049-0.368-0.108-0.547-0.174c-0.356-0.131-0.707-0.296-1.082-0.358c-0.112-0.019-0.196,0.063-0.176,0.176
			c0.08,0.453,0.445,0.823,0.815,1.07c0.383,0.257,0.829,0.431,1.277,0.537c0.48,0.114,1.013,0.127,1.499,0.038
			c0.405-0.074,0.997-0.283,1.152-0.703C354.839,230.533,354.738,230.325,354.47,230.282z"/>
	</g>
</g>
</svg>
